{"glyphs":{"0":{"ha":583,"x_min":53,"x_max":585,"o":"m 565 515 q 582 379 585 449 q 559 247 579 310 q 502 131 539 183 q 414 44 465 78 q 297 6 354 6 q 172 51 225 6 q 93 161 119 97 q 58 309 63 232 q 74 463 53 386 q 110 555 86 511 q 165 633 135 599 q 231 691 196 668 q 303 721 267 714 q 319 722 308 722 q 363 713 338 722 q 385 706 379 706 q 413 697 392 706 q 449 678 433 688 q 519 612 489 654 q 565 515 550 569 m 429 381 q 429 426 431 413 q 424 458 428 439 q 413 491 419 474 q 397 524 407 508 q 374 549 388 539 q 340 558 360 558 q 304 553 326 558 q 281 547 286 550 q 269 533 276 544 q 236 472 251 510 q 214 397 221 435 q 209 327 207 369 q 218 258 211 285 q 242 199 228 225 q 275 163 257 174 q 294 157 282 157 q 337 173 317 157 q 374 212 357 189 q 402 260 390 235 q 419 303 414 285 q 426 335 425 321 q 429 381 428 349 m 88 615 q 68 593 75 593 q 64 597 67 593 q 64 613 61 604 q 78 638 67 621 q 101 666 85 649 q 136 701 117 683 q 175 732 156 719 q 207 744 194 744 q 188 715 224 739 q 160 695 175 708 q 131 667 146 682 q 105 639 117 653 q 88 615 93 625 z "},"1":{"ha":383,"x_min":83,"x_max":397,"o":"m 94 654 q 88 658 92 654 q 85 665 85 663 q 94 676 85 667 q 117 700 103 686 q 144 732 129 715 q 168 760 160 749 q 185 780 179 775 q 194 785 190 785 q 183 747 210 783 q 161 722 175 738 q 133 690 147 706 q 108 665 119 675 q 94 654 97 654 m 392 725 q 397 676 397 710 q 388 554 396 642 q 381 472 383 507 q 376 401 378 436 q 374 328 375 367 q 371 232 372 289 q 368 140 369 172 q 365 90 367 107 q 361 67 364 74 q 354 53 358 61 q 326 26 343 35 q 292 17 310 17 q 242 36 263 17 q 217 85 221 56 q 216 147 215 94 q 219 265 217 200 q 225 394 222 331 q 231 489 228 458 q 233 513 232 503 q 232 522 233 522 q 226 518 229 521 q 215 510 221 515 q 149 476 174 476 q 113 488 131 476 q 89 515 96 500 q 84 541 85 525 q 89 568 83 557 q 101 585 90 572 q 126 613 113 599 q 164 653 142 628 q 206 700 186 678 q 239 738 226 724 q 260 760 251 751 q 277 772 269 768 q 293 778 285 775 q 317 781 301 781 q 362 766 342 781 q 392 725 382 751 z "},"2":{"ha":553,"x_min":78,"x_max":596,"o":"m 544 649 q 551 601 550 629 q 547 549 551 572 q 476 372 532 472 q 328 158 419 271 q 310 135 317 144 q 306 126 304 126 q 336 125 313 126 q 386 122 360 124 q 435 117 413 119 q 463 114 458 115 q 503 94 488 108 q 526 63 519 81 q 528 25 532 44 q 507 -11 524 6 q 476 -31 493 -26 q 450 -35 463 -35 q 433 -34 443 -35 q 407 -32 424 -33 q 362 -29 393 -31 q 299 -25 331 -28 q 199 -17 228 -19 q 154 -8 169 -14 q 100 35 117 3 q 96 103 83 67 q 115 136 103 118 q 164 196 128 154 q 282 346 236 281 q 360 474 328 411 q 387 537 375 504 q 399 581 399 569 q 390 590 399 590 q 346 580 372 590 q 294 554 319 569 q 249 521 269 539 q 219 488 228 503 q 217 479 218 485 q 214 468 215 474 q 192 434 210 449 q 151 419 174 419 q 97 446 115 419 q 86 511 78 472 q 129 599 96 557 q 208 672 163 640 q 305 724 253 704 q 403 743 357 743 q 489 719 449 743 q 544 649 529 694 m 585 729 q 593 706 596 710 q 585 700 588 700 q 579 703 585 700 q 567 718 575 707 q 543 746 560 731 q 511 768 526 761 q 467 783 488 779 q 411 788 446 788 q 376 788 383 788 q 367 792 368 789 q 369 801 364 796 q 385 806 372 804 q 414 807 397 807 q 510 790 463 807 q 585 729 557 774 z "},"3":{"ha":563,"x_min":69,"x_max":569,"o":"m 343 -42 q 356 -39 354 -39 q 364 -43 360 -39 q 360 -58 375 -53 q 318 -64 346 -64 q 257 -58 289 -64 q 197 -43 225 -53 q 179 -24 167 -33 q 186 -22 181 -22 q 194 -22 189 -22 q 206 -25 199 -22 q 317 -44 271 -44 q 343 -42 329 -44 m 504 451 q 559 315 549 396 q 539 161 569 233 q 448 44 510 89 q 307 0 386 0 q 231 13 268 0 q 163 49 194 26 q 109 104 132 72 q 76 174 86 136 q 69 215 69 194 q 92 268 69 247 q 142 289 114 289 q 191 270 172 289 q 218 224 210 251 q 251 172 226 192 q 308 151 275 151 q 393 206 367 151 q 408 248 404 225 q 410 293 411 271 q 401 333 408 315 q 381 361 393 351 q 366 371 376 365 q 346 381 356 376 q 285 451 290 404 q 295 499 282 478 q 349 551 308 519 q 368 567 358 558 q 381 583 378 576 q 395 626 393 603 q 386 657 397 650 q 379 658 385 658 q 355 651 369 658 q 326 633 340 644 q 298 609 311 622 q 279 583 285 596 q 260 556 272 568 q 233 540 247 544 q 218 538 222 538 q 170 558 190 538 q 150 607 150 579 q 174 676 150 640 q 233 740 197 711 q 310 788 268 769 q 386 807 351 807 q 467 785 431 807 q 525 724 504 764 q 541 681 538 699 q 544 629 544 664 q 534 556 544 588 q 499 489 524 524 l 486 472 l 504 451 z "},"4":{"ha":497,"x_min":69,"x_max":497,"o":"m 233 147 q 254 146 249 147 q 261 142 260 144 q 260 132 263 139 q 221 128 256 128 q 190 129 210 128 q 148 134 169 131 q 108 142 126 138 q 82 151 89 146 q 81 161 78 156 q 86 165 81 165 q 97 163 89 165 q 121 158 106 161 q 175 150 142 153 q 233 147 208 147 m 497 749 l 496 635 q 496 581 496 611 q 495 519 496 551 q 494 456 494 488 q 493 400 493 425 q 492 340 493 375 q 491 267 492 306 q 490 190 490 229 q 490 118 490 151 q 490 28 490 61 q 490 -22 490 -4 q 488 -45 489 -39 q 485 -57 488 -51 q 458 -90 476 -76 q 418 -103 439 -103 q 393 -97 406 -103 q 368 -83 381 -94 q 349 -56 356 -71 q 340 -2 343 -43 q 338 125 338 39 l 338 206 l 301 204 q 260 202 282 203 q 217 201 238 201 q 150 206 167 201 q 92 240 114 215 q 69 297 69 264 q 75 328 69 311 q 89 361 81 346 q 107 389 93 368 q 140 437 121 410 q 181 494 160 464 q 222 549 203 524 q 272 619 242 576 q 322 697 301 663 q 349 726 335 717 q 368 747 363 735 q 396 789 374 772 q 409 794 403 793 q 431 796 415 796 q 453 794 447 796 q 468 786 460 793 q 489 763 482 778 l 497 749 m 344 465 l 319 431 q 299 399 310 415 q 281 374 288 382 l 267 353 l 293 354 q 315 356 304 356 q 331 357 326 356 l 340 358 l 340 388 q 341 415 340 400 q 343 442 342 431 l 344 465 z "},"5":{"ha":539,"x_min":83,"x_max":568,"o":"m 492 801 q 547 778 525 801 q 565 722 568 756 q 521 661 561 678 q 483 651 510 656 q 423 642 457 646 q 351 635 389 638 q 281 633 314 633 l 236 633 l 236 579 q 236 558 236 568 q 238 540 236 547 q 238 525 238 532 l 263 531 q 291 536 276 535 q 321 538 306 538 q 457 488 403 538 q 533 361 511 438 q 541 294 540 336 q 535 222 542 251 q 494 117 522 169 q 426 24 467 65 q 335 -42 386 -17 q 225 -67 283 -67 q 181 -60 206 -67 q 134 -42 156 -54 q 98 -13 113 -31 q 83 28 83 4 q 99 73 83 53 q 138 100 114 93 q 149 102 144 101 q 160 103 154 103 q 199 93 178 103 q 224 86 213 86 l 233 86 q 308 119 269 89 q 365 192 346 150 q 389 299 390 244 q 367 363 388 332 q 310 393 347 393 q 265 385 289 393 q 226 361 242 378 q 171 335 204 335 q 97 397 113 335 q 94 431 94 410 q 94 518 93 453 q 97 603 96 569 q 100 653 97 636 q 104 682 103 667 q 106 704 106 697 q 143 767 106 747 q 165 771 150 769 q 229 774 181 772 q 278 776 257 775 q 322 780 300 778 q 367 785 343 782 q 426 794 392 789 q 465 799 446 797 q 492 801 485 801 m 486 10 q 515 32 507 32 q 521 28 519 32 q 517 13 524 22 q 489 -18 510 3 q 435 -61 463 -44 q 369 -92 408 -78 q 340 -101 346 -101 q 333 -97 336 -101 q 335 -87 331 -90 q 357 -76 340 -83 q 429 -40 396 -62 q 486 10 463 -18 z "},"6":{"ha":499,"x_min":71,"x_max":515,"o":"m 121 619 q 106 604 113 604 q 100 610 101 604 q 118 651 97 618 q 174 725 139 685 q 235 776 218 776 q 242 771 240 776 q 213 736 242 765 q 188 709 201 725 q 160 676 174 693 q 137 644 147 660 q 121 619 126 629 m 510 263 q 506 185 515 226 q 472 106 496 143 q 393 25 443 56 q 285 -6 343 -6 q 181 32 226 -6 q 113 118 136 69 q 78 325 71 206 q 139 557 85 444 q 173 617 150 581 q 224 688 196 653 q 285 749 253 724 q 347 774 317 774 q 381 765 365 774 q 406 744 396 757 q 417 713 415 731 q 408 678 418 696 q 388 654 400 661 q 345 614 368 643 q 299 543 322 585 q 285 515 293 532 q 270 483 276 499 q 260 456 264 467 q 256 444 256 444 q 279 446 271 444 q 299 447 285 447 q 442 397 386 447 q 510 263 499 346 m 315 154 q 347 190 333 165 q 361 238 361 215 q 344 280 361 264 q 303 296 328 296 q 244 233 263 296 q 241 200 239 211 q 254 172 243 189 q 292 147 271 147 q 315 154 306 147 z "},"7":{"ha":453,"x_min":67,"x_max":486,"o":"m 410 710 q 468 672 450 701 q 476 603 486 642 q 472 588 475 594 q 465 572 469 582 q 451 543 460 561 q 426 494 442 525 q 403 445 415 471 q 383 406 390 419 q 328 235 351 326 q 290 36 304 143 q 279 -20 285 -4 q 260 -47 274 -36 q 236 -60 251 -54 q 211 -67 221 -67 q 189 -61 206 -67 q 174 -54 182 -58 q 163 -46 167 -50 q 140 1 143 -26 q 146 90 136 28 q 194 317 165 217 q 268 517 222 418 l 285 550 l 200 550 l 114 549 l 101 557 q 70 606 74 576 q 89 658 67 635 q 103 669 96 665 q 122 676 110 674 q 154 682 135 679 q 204 688 174 685 q 269 695 232 690 q 332 703 307 700 q 374 709 360 707 q 397 711 388 711 q 410 710 406 711 m 311 750 q 228 738 269 743 q 164 733 188 733 q 143 736 146 733 q 142 744 142 738 q 149 751 142 750 q 189 754 157 751 q 249 760 217 756 q 319 772 281 765 q 351 776 343 776 q 363 768 363 776 q 354 759 363 761 q 311 750 346 757 z "},"8":{"ha":558,"x_min":26,"x_max":575,"o":"m 157 699 q 92 637 118 675 q 51 557 65 599 q 38 535 44 536 q 29 539 29 535 q 36 574 26 546 q 58 622 46 601 q 96 673 71 644 q 139 713 121 701 q 161 721 154 721 q 169 714 169 721 q 157 699 171 707 m 474 329 q 541 248 518 297 q 557 150 564 199 q 523 59 550 99 q 457 -8 496 19 q 371 -51 418 -36 q 275 -65 324 -65 q 194 -50 232 -65 q 128 -8 156 -35 q 84 57 100 19 q 68 139 68 94 q 88 232 68 181 q 139 319 108 283 l 151 335 l 139 349 q 95 422 110 381 q 85 500 81 463 q 113 588 89 547 q 171 659 136 628 q 249 709 206 690 q 338 731 292 728 q 389 729 367 731 q 439 717 411 728 q 530 653 494 699 q 571 549 565 608 q 549 449 575 500 q 474 361 522 397 q 454 344 454 347 q 460 340 457 343 q 466 335 463 338 q 474 329 469 332 m 304 86 q 351 102 329 90 q 386 129 372 114 q 405 160 400 144 q 401 189 410 176 q 382 208 397 197 q 349 228 367 218 q 315 246 332 239 q 288 253 297 253 q 276 251 281 253 q 252 235 263 249 q 235 206 242 222 q 224 171 228 189 q 221 140 221 153 q 235 97 221 108 q 281 85 250 85 q 292 85 286 85 q 304 86 297 85 m 382 481 q 419 542 425 511 q 365 581 414 574 q 310 574 332 581 q 265 540 289 567 q 240 464 224 496 q 247 455 242 461 q 259 442 253 449 q 271 431 265 436 q 278 426 276 426 q 291 432 279 426 q 321 446 303 438 q 356 465 338 456 q 382 481 374 475 z "},"9":{"ha":531,"x_min":51,"x_max":558,"o":"m 69 661 q 81 694 56 667 q 146 747 106 721 q 178 765 157 754 q 201 776 199 776 q 208 772 204 776 q 210 764 211 767 q 202 756 210 761 q 183 746 194 751 q 130 712 158 733 q 90 675 101 690 q 74 660 76 660 q 69 661 71 660 m 513 696 q 545 672 532 689 q 558 633 558 654 q 553 608 558 622 q 543 592 547 594 q 528 574 538 589 q 508 540 519 560 q 487 498 497 521 q 469 454 476 475 q 400 229 422 338 q 368 -3 378 121 q 352 -75 365 -42 q 290 -108 339 -108 q 260 -101 276 -108 q 235 -81 246 -94 q 219 -51 224 -67 q 216 -30 217 -40 q 217 0 215 -19 q 222 55 218 19 q 229 127 225 90 q 238 194 233 164 q 244 232 243 225 q 241 235 246 235 q 219 238 236 236 q 174 244 192 238 q 96 303 125 263 q 59 397 67 344 q 65 508 51 449 q 117 621 79 567 q 206 703 153 674 q 317 733 260 733 q 378 723 346 733 q 433 694 410 713 l 447 685 l 460 690 q 494 699 475 699 q 513 696 501 699 m 339 521 q 355 554 349 540 q 361 571 361 568 q 348 586 361 582 q 326 590 335 590 q 293 583 307 590 q 260 557 279 576 q 218 493 232 531 q 207 424 204 456 q 213 400 208 413 q 222 388 218 388 l 226 390 q 232 393 229 392 q 238 396 235 394 q 295 453 269 422 q 339 521 321 483 z "},"\u0000":{"ha":0,"x_min":0,"x_max":0,"o":""},"\r":{"ha":304,"x_min":0,"x_max":0,"o":""}," ":{"ha":304,"x_min":0,"x_max":0,"o":""},"$":{"ha":656,"x_min":11,"x_max":539,"o":"m 117 697 q 64 644 88 674 q 32 590 40 614 q 21 581 28 581 q 15 585 18 581 q 26 622 11 594 q 61 672 42 650 q 94 703 76 689 q 118 718 111 718 q 128 712 128 718 q 117 697 128 706 m 456 325 q 522 219 504 276 q 521 108 539 161 q 371 -22 490 21 q 366 -30 367 -24 q 367 -64 365 -36 q 369 -95 368 -79 q 372 -117 371 -111 q 366 -162 376 -140 q 335 -194 356 -183 q 303 -201 321 -201 q 275 -196 286 -201 q 254 -182 265 -193 q 230 -140 236 -165 q 226 -67 224 -115 l 229 -22 l 215 -18 q 165 8 189 -10 q 131 47 142 26 q 117 84 122 63 q 115 119 113 106 q 140 170 119 151 q 192 189 161 189 q 261 138 246 189 q 267 126 264 128 q 281 122 269 124 q 296 121 286 121 q 337 128 315 121 q 371 146 358 135 q 378 174 382 156 q 356 211 374 192 q 318 241 342 226 q 250 278 294 256 q 176 319 203 301 q 129 356 149 338 q 74 465 83 404 q 97 588 65 525 q 214 692 136 668 l 225 696 l 226 736 q 232 783 228 769 q 249 811 236 797 q 299 833 271 833 q 356 803 336 833 q 368 770 367 786 q 364 706 369 754 l 361 690 l 379 682 q 442 636 417 665 q 472 575 467 607 q 456 524 476 547 q 407 500 436 500 q 351 532 372 500 q 326 554 340 550 q 292 558 311 558 q 254 549 268 558 q 229 516 239 538 q 225 479 219 494 q 250 451 231 465 q 319 413 269 438 q 403 365 372 385 q 456 325 435 346 z "},"%":{"ha":747,"x_min":50,"x_max":608,"o":"m 528 222 q 590 167 568 210 q 599 144 597 151 q 600 115 600 138 q 599 84 600 92 q 588 57 597 76 q 538 -3 568 19 q 465 -25 508 -25 q 444 -24 449 -25 q 396 1 418 -17 q 363 42 374 18 q 353 81 356 57 q 356 125 351 106 q 369 163 360 143 q 391 199 378 182 q 422 226 404 215 q 460 238 439 238 q 479 233 474 238 q 496 229 483 229 q 528 222 510 229 m 490 67 q 508 88 501 74 q 515 115 515 103 q 492 144 515 138 q 469 154 479 147 q 461 158 465 158 q 443 133 453 158 q 434 101 436 118 q 438 76 432 83 q 469 61 450 61 q 490 67 481 61 m 579 693 q 539 625 565 671 q 457 481 513 579 q 388 355 419 414 q 330 241 357 296 q 278 133 303 186 q 232 24 254 79 q 197 -57 208 -36 q 176 -85 186 -78 q 131 -101 156 -101 q 99 -94 115 -101 q 61 -56 72 -82 q 60 0 50 -29 q 74 35 63 8 q 99 94 85 61 q 127 161 113 128 q 151 217 142 194 q 199 315 171 258 q 257 430 226 372 q 316 538 288 488 q 363 617 344 588 q 400 675 379 644 q 440 732 421 706 q 474 778 458 758 q 494 803 489 797 q 543 824 518 824 q 588 806 569 824 q 607 763 606 789 q 605 736 608 746 q 579 693 601 726 m 163 567 q 104 610 125 578 q 90 679 83 643 q 138 769 101 732 q 215 806 174 806 q 243 799 226 806 q 260 789 260 793 q 276 778 260 785 q 311 739 299 764 q 321 686 324 714 q 308 639 319 661 q 277 599 296 617 q 236 572 258 582 q 190 563 214 563 q 163 567 175 563 m 204 724 q 188 709 196 719 q 176 688 181 699 q 172 666 172 676 q 178 653 172 656 q 192 649 185 649 q 221 663 207 649 q 235 692 235 678 q 225 714 235 704 q 204 724 215 724 z "},"&":{"ha":839,"x_min":67,"x_max":728,"o":"m 90 628 q 76 610 82 610 q 72 613 75 610 q 76 640 67 618 q 103 688 85 661 q 124 710 108 694 q 156 742 139 726 q 191 770 174 758 q 218 782 208 782 q 225 774 225 782 q 199 749 226 769 q 90 628 121 699 m 718 307 q 726 250 725 286 q 722 185 728 214 q 631 11 701 85 q 464 -89 561 -62 q 429 -96 444 -94 q 381 -99 414 -97 q 340 -99 358 -99 q 319 -97 322 -99 q 165 -29 229 -81 q 83 115 100 22 q 90 240 74 174 q 143 354 107 306 q 157 375 157 372 q 147 392 157 378 q 119 468 125 424 q 125 550 114 506 q 160 631 136 594 q 257 722 203 694 q 386 750 311 750 q 479 732 431 750 q 549 669 528 714 q 549 604 564 635 q 499 571 533 574 q 469 575 481 571 q 443 590 458 579 q 421 606 432 601 q 394 610 410 610 q 350 601 372 610 q 310 576 328 592 q 282 541 293 561 q 269 499 271 521 q 273 475 268 479 q 303 468 278 471 q 361 442 340 461 q 381 389 381 419 q 360 338 381 358 q 345 325 354 332 q 326 314 336 318 q 256 254 279 290 q 233 165 233 218 q 235 131 233 139 q 240 114 236 122 q 304 63 263 74 q 386 51 346 51 q 454 69 421 54 q 514 108 488 83 q 557 165 540 132 q 575 233 574 197 l 576 254 l 556 257 q 538 262 547 260 q 525 267 529 264 q 515 269 521 269 q 503 258 511 269 q 489 233 496 247 q 476 204 482 218 q 469 186 471 190 q 460 160 464 168 q 449 144 456 153 q 403 125 429 125 q 367 138 383 125 q 338 182 343 153 q 344 241 333 204 q 376 318 356 278 q 425 395 397 358 q 482 454 453 432 q 513 478 494 465 q 550 501 531 490 q 590 520 569 513 q 626 529 610 528 q 670 519 651 529 q 700 486 689 510 q 701 430 711 458 q 664 389 690 401 q 660 384 658 386 q 672 372 661 382 q 718 307 706 346 z "},"'":{"ha":221,"x_min":-15,"x_max":151,"o":"m 151 976 q 147 944 151 965 q 132 903 142 924 q 110 867 122 882 q 82 851 97 851 q 65 860 72 851 q 67 893 53 874 l 74 903 l 60 906 q 5 936 25 910 q -12 999 -15 963 q 10 1055 -8 1031 q 64 1079 28 1079 q 129 1048 107 1079 q 151 976 151 1017 z "},"(":{"ha":525,"x_min":85,"x_max":450,"o":"m 376 32 q 414 -43 418 -1 q 389 -89 410 -71 q 340 -107 368 -107 q 325 -106 331 -107 q 284 -87 307 -103 q 240 -49 261 -71 q 199 -6 218 -28 q 171 31 181 17 q 117 142 139 79 q 88 276 96 206 q 85 315 86 292 q 85 363 85 338 q 86 413 85 389 q 89 453 88 438 q 112 563 96 506 q 151 672 128 621 q 189 743 165 706 q 238 815 213 781 q 286 874 263 849 q 325 907 310 900 q 360 914 339 914 q 410 893 392 914 q 397 794 450 846 q 351 734 375 772 q 306 649 326 696 q 268 553 285 603 q 243 461 251 504 q 238 416 239 443 q 236 361 236 389 q 238 308 236 333 q 242 265 239 282 q 287 131 257 183 q 376 32 317 79 z "},"A":{"ha":608,"x_min":0,"x_max":539,"o":"m 117 28 q 139 40 132 40 q 146 33 143 40 q 136 15 149 28 q 76 -12 111 -10 l 67 -12 q 42 -6 54 -12 q 13 17 26 3 q 1 39 0 32 q 8 46 3 46 q 25 35 15 46 q 47 16 35 24 q 75 8 60 8 q 117 28 90 8 m 515 872 q 529 801 524 840 q 537 708 535 761 q 538 588 539 656 q 532 432 536 519 q 529 369 531 403 q 526 305 528 336 q 524 246 525 274 q 522 199 522 218 q 519 121 519 160 q 517 64 518 82 q 512 24 515 44 q 500 -12 508 4 q 477 -40 492 -29 q 438 -50 463 -50 q 403 -40 418 -50 q 378 -18 389 -33 q 365 13 368 -3 q 363 49 364 18 q 363 117 363 81 q 365 187 364 154 q 368 226 367 219 l 369 235 l 297 233 q 224 228 261 232 q 151 219 188 225 q 149 202 150 219 q 146 160 147 185 q 143 108 144 121 q 138 86 142 96 q 113 57 129 67 q 79 47 97 47 q 33 67 56 47 q 24 78 29 71 q 17 93 19 86 q 8 150 10 110 q 7 242 6 190 q 13 350 8 293 q 26 456 18 407 q 132 806 63 664 q 293 997 201 949 q 333 1014 315 1011 q 376 1017 351 1017 q 461 976 425 1014 q 515 872 497 939 m 376 440 q 379 510 378 472 q 382 582 381 547 q 383 646 383 617 q 383 690 383 675 q 379 745 382 718 q 373 794 376 772 q 365 828 369 815 q 358 842 361 842 q 340 826 356 842 q 313 799 324 811 q 254 693 283 761 q 204 543 225 625 q 192 494 199 522 q 182 442 186 467 q 175 401 178 418 q 174 385 172 385 q 182 386 175 385 q 200 390 189 388 q 272 402 232 397 q 340 407 313 407 l 374 407 l 376 440 z "},"B":{"ha":525,"x_min":-32,"x_max":457,"o":"m 172 1007 q 131 1012 140 1008 q 128 1022 121 1015 q 153 1026 132 1026 l 175 1026 q 207 1022 183 1026 q 257 1012 231 1018 q 303 997 283 1006 q 324 979 324 989 q 320 971 324 975 q 314 968 317 967 q 307 971 311 969 q 292 979 303 975 q 238 999 267 992 q 172 1007 208 1006 m 379 476 q 438 391 418 442 q 454 282 457 340 q 391 122 447 186 q 242 32 335 58 q 210 24 224 25 q 167 22 197 22 l 144 22 q 119 22 131 22 q 104 24 108 22 q 63 44 79 28 q 49 63 54 54 q 42 84 44 71 q 41 118 40 97 q 43 175 42 139 q 47 272 46 215 q 49 417 49 329 q 44 615 49 521 q 24 813 39 710 q 17 842 19 836 q 8 853 15 847 q -25 894 -18 868 q -17 944 -32 921 q 18 972 -4 964 q 89 982 40 979 q 231 964 164 982 q 351 890 297 946 q 422 778 400 840 q 435 651 444 715 q 375 513 425 576 l 361 494 l 379 476 m 164 833 q 165 819 163 832 q 172 789 168 807 q 183 730 178 763 q 192 666 188 697 q 198 606 196 635 q 200 558 200 578 l 200 550 l 208 556 q 222 567 213 558 q 240 588 231 576 q 274 633 261 608 q 280 728 297 679 q 214 810 263 778 q 184 826 203 817 q 164 833 165 835 m 296 253 q 301 273 300 264 q 301 301 303 282 q 254 376 300 365 q 221 385 238 382 q 203 386 204 388 q 201 357 201 385 q 199 289 200 329 q 197 218 197 249 q 194 185 196 188 q 196 176 193 176 q 203 178 200 176 q 258 205 232 185 q 296 253 285 225 z "},"C":{"ha":639,"x_min":14,"x_max":569,"o":"m 63 761 q 47 746 56 746 q 40 751 42 746 q 57 797 40 771 q 97 846 74 822 q 144 889 119 869 q 185 917 168 908 q 207 924 197 924 q 217 917 217 924 q 215 908 218 911 q 197 900 211 906 q 176 890 188 896 q 157 876 164 883 q 101 823 129 857 q 63 761 74 789 m 564 392 q 569 368 569 376 q 561 332 568 360 q 406 78 513 149 q 292 40 349 40 q 274 42 279 40 q 153 92 203 53 q 72 188 103 132 q 28 309 42 243 q 14 439 14 375 q 133 800 17 664 q 313 893 214 893 q 377 883 344 893 q 438 855 410 874 q 485 809 465 836 q 510 749 504 782 q 493 665 519 692 q 447 646 474 646 q 403 664 422 646 q 381 707 383 682 q 360 737 378 728 q 324 746 343 746 q 288 735 306 746 q 255 708 269 724 q 228 674 240 692 q 208 640 217 656 q 178 560 189 600 q 165 465 168 519 q 188 297 160 369 q 264 200 215 224 q 292 193 281 193 q 335 212 315 193 q 369 256 354 231 q 395 309 385 282 q 411 353 406 336 q 436 417 421 389 q 496 444 451 444 q 538 430 519 444 q 564 392 557 415 z "},"D":{"ha":556,"x_min":-1,"x_max":526,"o":"m 521 626 q 525 588 524 610 q 526 543 526 567 q 524 497 526 519 q 519 457 522 474 q 453 287 500 365 q 339 151 407 208 q 288 115 318 135 q 226 79 258 96 q 160 51 193 63 q 97 40 126 40 q 56 59 74 40 q 32 97 39 78 q 26 151 29 108 q 22 256 24 194 q 18 391 19 318 q 17 533 17 464 q 17 661 17 603 q 19 753 18 719 q 22 808 22 799 q 17 822 22 817 q 1 869 -1 842 q 25 914 4 896 q 76 937 43 929 q 149 944 108 944 q 231 937 189 944 q 308 914 274 929 q 444 802 386 881 q 521 626 501 724 m 369 485 q 375 546 375 510 q 369 606 375 582 q 325 707 358 660 q 249 776 292 754 q 204 794 229 786 q 167 803 179 803 l 160 803 l 161 775 q 162 746 161 769 q 164 687 163 722 q 166 606 165 651 q 168 513 167 561 q 170 419 169 464 q 172 338 171 374 q 174 279 174 303 q 175 250 175 256 l 176 222 l 190 231 q 308 338 261 278 q 369 485 354 397 m 314 950 q 297 971 283 961 q 342 961 317 971 q 390 936 367 951 q 434 903 414 921 q 464 868 454 885 q 464 854 468 858 q 456 849 458 849 q 449 855 454 849 q 438 868 444 861 q 384 917 414 899 q 314 950 354 936 z "},"E":{"ha":576,"x_min":-56,"x_max":519,"o":"m 3 143 q 28 7 -6 47 q 33 -6 35 0 q 24 -11 31 -11 q 7 -1 15 -11 q -15 54 -10 21 q -17 140 -21 88 q -10 192 -14 181 q 0 203 -7 204 q 5 202 3 203 q 7 196 7 201 q 6 178 7 190 q 3 143 6 167 m 506 153 q 510 97 519 125 q 471 53 500 68 q 456 48 463 49 q 428 47 449 47 q 390 49 415 49 q 342 49 365 49 q 299 48 317 49 q 264 44 281 47 q 230 35 247 40 q 189 22 213 31 q 149 11 165 15 q 121 7 133 7 q 78 22 97 7 q 50 58 58 36 q 44 98 44 74 q 46 179 43 122 q 50 265 47 208 q 55 388 53 321 q 59 524 57 454 q 63 650 61 593 q 65 744 64 707 q 64 782 65 781 q 53 783 58 783 q 42 785 49 785 q 28 788 35 786 q -31 806 -7 792 q -56 858 -56 819 q -54 878 -56 872 q -46 892 -53 883 q -19 915 -39 903 l -3 924 l 40 921 q 74 919 57 919 q 99 919 92 919 l 171 919 q 232 926 185 919 q 376 947 279 932 q 397 949 388 949 q 413 950 406 950 q 458 935 436 950 q 485 896 479 919 q 481 845 492 868 q 446 810 469 822 q 408 801 440 807 q 338 788 376 794 q 263 778 299 782 q 215 774 228 774 l 204 774 l 206 754 q 208 713 207 746 q 210 643 208 681 l 213 551 l 221 554 q 286 562 253 560 q 351 564 319 564 q 391 556 376 563 q 419 535 406 550 q 431 457 453 501 q 353 417 414 417 l 339 417 q 313 417 333 417 q 271 416 293 417 q 230 414 249 415 q 210 411 211 413 q 208 376 210 411 q 203 299 206 340 q 201 222 201 257 q 200 186 200 186 q 221 189 200 183 q 342 203 278 203 q 372 202 357 203 q 403 200 386 201 q 473 186 451 196 q 506 153 494 176 z "},"F":{"ha":506,"x_min":-15,"x_max":601,"o":"m 164 989 q 150 992 153 992 q 147 999 147 993 l 147 1007 l 211 1007 q 268 1008 251 1007 q 304 1014 285 1010 q 351 1024 342 1024 q 358 1019 357 1024 q 353 1006 361 1010 q 307 994 344 1001 q 258 990 292 992 q 197 988 225 988 q 164 989 172 988 m 594 953 q 601 919 601 938 q 594 885 601 900 q 578 863 589 874 q 556 849 567 853 q 533 842 551 847 q 491 832 514 838 q 445 822 468 826 q 408 814 422 817 q 331 803 365 807 q 257 797 296 800 l 204 796 l 206 788 q 209 756 207 785 q 214 688 211 726 l 222 597 l 239 599 q 272 601 251 600 q 316 603 293 603 q 361 605 339 604 q 397 606 383 606 q 467 590 436 606 q 499 529 499 574 q 472 475 499 497 q 441 458 458 463 q 385 454 424 454 q 338 453 368 454 q 285 451 308 453 l 226 450 l 228 404 q 230 327 229 385 q 233 207 231 269 q 235 124 235 156 q 235 76 235 93 q 234 51 235 58 q 232 36 233 43 q 205 -3 225 11 q 161 -18 185 -18 q 136 -14 149 -18 q 92 29 106 -1 q 88 42 89 35 q 85 69 86 49 q 83 127 85 89 q 81 235 82 165 l 75 425 l 56 425 q 3 445 22 425 q -12 497 -15 465 q 5 535 -10 521 q 51 560 19 549 l 71 567 l 69 588 q 67 631 68 596 q 65 707 67 667 l 64 806 l 51 807 q 9 827 25 811 q -10 869 -7 843 q 10 922 -11 901 q 23 933 17 929 q 42 938 29 936 q 76 941 54 940 q 135 942 97 942 q 298 951 226 943 q 447 976 369 958 q 485 985 467 981 q 511 990 504 989 q 525 992 515 992 q 565 981 546 992 q 594 953 583 971 z "},"G":{"ha":632,"x_min":14,"x_max":590,"o":"m 67 813 q 47 786 53 786 q 42 792 43 786 q 45 814 39 799 q 65 850 51 829 q 98 894 79 871 q 138 938 117 917 q 160 959 153 954 q 172 963 167 964 q 179 953 183 961 q 151 922 175 946 q 101 866 124 894 q 67 813 78 838 m 415 574 q 555 511 519 574 q 563 311 590 449 q 533 212 553 261 q 483 124 514 163 q 410 63 453 86 q 310 39 368 39 q 293 40 301 39 q 278 42 285 40 q 156 103 206 57 q 74 210 106 149 q 28 343 43 272 q 14 478 14 414 q 52 683 14 581 q 161 869 90 786 q 272 960 210 928 q 393 993 333 993 q 410 993 401 993 q 428 990 419 993 q 556 868 528 971 q 560 822 563 839 q 543 789 558 804 q 496 768 524 768 q 429 821 444 768 q 419 844 424 840 q 403 849 415 849 q 335 824 375 849 q 265 760 296 799 q 213 678 235 722 q 180 585 192 633 q 167 492 168 538 q 172 390 165 435 q 199 297 179 344 q 250 220 218 249 q 315 192 282 192 q 363 215 343 192 q 397 272 383 239 q 416 341 410 306 q 422 399 422 376 l 424 424 l 401 422 q 374 421 392 422 q 342 417 357 419 q 321 415 329 415 q 307 414 313 414 q 297 415 300 414 q 286 417 293 415 q 247 442 261 424 q 232 483 233 461 q 241 524 231 504 q 274 554 251 544 q 298 562 282 558 q 334 568 314 565 q 376 572 354 571 q 415 574 397 574 z "},"H":{"ha":711,"x_min":-44,"x_max":628,"o":"m 64 779 q 54 782 60 776 q 51 796 51 785 q 53 833 51 807 q 60 903 54 874 q 79 958 67 933 q 90 978 86 974 q 99 983 93 982 q 101 957 118 986 q 80 901 86 929 q 71 826 74 874 q 68 788 69 797 q 64 779 67 779 m 628 383 q 619 349 628 364 l 611 332 l 615 257 q 617 191 617 225 q 618 140 618 157 q 617 103 618 110 q 608 83 615 96 q 580 55 597 64 q 544 46 563 46 q 501 59 521 46 q 474 99 482 72 q 469 129 471 107 q 465 204 468 151 q 463 273 464 243 q 461 307 463 303 l 460 317 l 376 317 q 313 317 342 317 q 276 315 283 317 l 260 313 l 261 274 q 263 226 263 258 q 264 165 264 194 q 264 128 264 142 q 263 106 264 114 q 262 92 263 97 q 258 83 261 88 q 231 51 249 64 q 190 38 213 38 q 168 42 181 38 q 138 59 149 47 q 122 86 128 71 q 115 119 117 101 q 114 153 114 136 q 112 207 113 176 q 111 257 111 238 l 111 306 l 96 303 q 76 300 89 301 q 51 297 64 299 q 36 294 43 294 q 22 294 29 294 q -10 303 7 294 q -41 353 -37 318 q -19 408 -44 388 q 5 422 -8 418 q 51 433 18 426 q 81 440 67 438 q 99 443 96 443 l 106 444 l 104 535 q 104 651 103 590 q 109 765 106 711 q 117 861 113 819 q 128 922 122 903 q 153 956 135 944 q 190 968 171 968 q 240 944 219 968 q 254 917 251 932 q 254 856 257 901 q 254 808 254 842 q 254 731 254 774 q 254 642 254 689 q 255 558 254 596 q 256 494 256 519 q 257 468 257 469 q 288 468 258 468 q 357 469 317 468 l 456 471 l 457 560 q 463 740 460 668 q 471 826 467 813 q 496 864 478 851 q 535 876 514 876 q 589 847 568 876 q 601 785 597 835 q 608 678 606 736 q 610 567 610 619 q 610 497 610 515 q 613 431 610 432 q 623 413 618 428 q 628 383 628 399 z "},"I":{"ha":483,"x_min":-1,"x_max":469,"o":"m 124 1032 q 115 1040 115 1035 q 123 1047 115 1046 q 178 1049 131 1047 q 234 1051 215 1050 q 269 1057 253 1053 q 300 1063 290 1061 q 314 1065 310 1065 q 321 1061 319 1065 q 239 1032 331 1040 q 209 1030 226 1031 q 174 1029 192 1029 q 124 1032 138 1029 m 429 1004 q 459 977 449 994 q 469 941 469 960 q 460 904 469 922 q 431 875 450 886 q 408 867 421 869 q 363 858 394 864 q 321 851 332 854 q 310 846 310 849 q 306 824 308 842 q 302 783 304 807 q 298 730 300 758 q 293 674 296 701 q 281 344 283 510 l 279 185 l 297 188 q 365 170 333 188 q 397 110 397 153 q 386 69 397 83 q 358 47 375 54 q 321 38 342 40 q 281 35 300 36 q 183 25 231 32 q 111 10 135 18 q 69 0 86 0 q 57 1 61 0 q 26 17 39 6 q 9 44 14 29 q 7 76 4 60 q 21 107 10 93 q 51 129 29 118 q 99 149 72 140 l 126 157 l 128 319 q 131 472 129 406 q 137 594 133 539 q 146 697 140 650 q 160 790 151 744 q 167 835 167 829 q 143 840 167 838 q 87 849 118 843 q 42 861 56 854 q 13 884 24 869 q 1 916 3 899 q 6 950 -1 933 q 31 978 14 967 q 67 986 43 986 q 115 982 85 986 q 129 981 122 981 q 143 981 136 981 q 197 984 165 981 q 290 999 228 988 q 393 1013 369 1013 q 413 1010 406 1013 q 429 1004 421 1008 z "},")":{"ha":525,"x_min":38,"x_max":400,"o":"m 397 478 q 399 440 399 463 q 399 392 400 417 q 396 344 397 368 q 392 303 394 319 q 336 111 376 203 q 232 -60 296 19 q 187 -104 206 -92 q 144 -117 168 -117 q 129 -114 138 -117 q 114 -108 121 -111 q 82 -78 93 -99 q 74 -35 71 -58 q 83 -8 76 -19 q 108 28 89 4 q 181 135 147 71 q 231 261 215 200 q 245 338 242 303 q 246 425 249 372 q 243 484 246 458 q 235 534 240 510 q 219 583 229 558 q 193 639 208 607 q 76 796 138 754 q 42 846 47 815 q 61 900 38 876 q 107 921 82 921 q 165 899 135 921 q 225 847 196 876 q 278 785 254 817 q 314 732 301 753 q 367 613 346 679 q 397 478 389 547 z "},"J":{"ha":535,"x_min":-76,"x_max":486,"o":"m 107 983 q 103 992 103 986 q 107 999 103 997 q 128 1001 108 1000 q 175 1003 147 1001 q 231 1008 206 1006 q 274 1013 257 1010 q 299 1017 286 1015 q 326 1019 313 1019 q 332 1013 332 1019 q 303 998 332 1004 q 239 988 275 992 q 169 983 203 985 q 124 982 135 982 q 113 983 117 982 q 107 983 108 983 m 468 899 q 483 844 479 876 q 486 742 486 813 q 437 301 486 475 q 292 58 388 126 q 233 27 260 35 q 167 17 207 19 q 61 40 108 17 q -19 114 14 63 q -42 304 -76 203 q -12 363 -31 336 q 46 389 6 389 q 83 378 65 389 q 113 344 101 367 q 108 276 125 315 q 119 182 82 214 q 158 167 136 167 q 174 168 168 167 q 204 181 192 171 q 231 208 217 190 q 335 725 331 343 l 335 799 l 321 799 q 244 796 276 796 q 188 796 211 796 q 153 797 174 796 q 113 799 133 797 q 74 806 92 801 q 43 817 56 810 q 8 865 13 832 q 29 922 4 899 q 50 936 40 932 q 76 940 60 940 q 92 940 83 940 q 113 938 101 939 q 136 936 125 936 q 158 936 147 936 q 214 939 183 936 q 297 949 244 942 q 351 956 333 954 q 379 958 369 958 q 394 957 390 958 q 468 899 446 946 z "},"K":{"ha":583,"x_min":14,"x_max":581,"o":"m 535 751 q 551 772 546 767 q 561 778 557 778 q 556 745 581 778 q 478 660 532 713 q 429 624 440 624 q 424 629 426 624 q 453 663 421 635 q 503 713 488 696 q 535 751 519 731 m 508 178 q 520 136 519 154 q 513 100 521 118 q 485 70 501 81 q 449 60 468 60 q 381 99 407 60 q 369 125 378 106 q 349 168 360 144 q 280 313 318 242 q 197 446 242 383 l 168 486 l 168 467 q 166 396 167 458 q 164 254 165 333 q 163 133 164 175 q 160 72 163 92 q 154 47 158 53 q 142 33 150 42 q 88 11 119 11 q 60 17 71 11 q 47 25 54 19 q 36 36 40 31 q 24 52 28 44 q 17 80 19 60 q 15 138 15 100 q 14 243 14 175 q 16 459 14 363 q 22 635 18 556 q 31 778 25 714 q 46 900 38 843 q 64 959 50 936 q 118 982 78 982 q 135 981 129 982 q 161 963 149 975 q 178 935 174 950 q 181 913 181 925 q 179 871 182 901 q 176 810 178 844 q 174 747 175 776 q 174 696 174 717 q 176 675 175 675 q 182 679 181 675 q 210 703 185 682 q 272 753 236 725 q 349 817 317 789 q 404 869 381 846 q 457 916 442 906 q 490 926 472 926 q 522 918 508 926 q 545 897 536 910 q 556 867 554 883 q 550 835 557 851 q 509 778 540 814 q 440 706 478 743 q 363 635 401 668 q 301 583 325 601 l 292 574 l 322 528 q 427 358 381 451 q 508 178 474 265 z "},"L":{"ha":499,"x_min":-24,"x_max":443,"o":"m 401 194 q 433 165 422 183 q 443 128 443 147 q 433 91 443 108 q 403 63 424 74 q 381 56 393 57 q 315 54 368 54 q 190 45 243 54 q 93 17 138 36 q 49 7 69 7 q -7 44 10 7 q 7 118 -24 83 l 19 131 l 19 153 q 20 189 19 160 q 22 260 21 218 q 24 353 22 303 q 28 449 26 403 q 31 534 29 496 q 33 592 32 572 q 41 674 36 628 q 51 765 46 719 q 63 846 57 810 q 72 897 68 882 q 99 939 81 925 q 140 953 118 953 q 189 931 168 953 q 203 903 200 917 q 203 860 206 890 q 199 826 201 840 q 197 794 197 811 q 194 753 196 776 q 192 693 193 731 q 187 610 189 654 q 183 542 185 565 q 181 473 182 518 q 176 388 179 428 q 174 304 175 347 q 172 239 174 261 q 171 195 169 204 q 175 188 172 186 q 242 202 201 197 q 311 207 282 207 q 330 207 321 207 q 346 206 339 207 q 380 201 369 203 q 401 194 390 200 m 325 1 q 332 -8 333 -4 q 324 -12 332 -11 q 285 -14 315 -14 q 156 -28 207 -15 q 118 -37 125 -37 q 113 -33 115 -37 q 115 -24 113 -26 q 146 -11 121 -17 q 201 -1 171 -6 q 259 5 231 3 q 301 7 288 7 q 325 1 319 7 z "},"M":{"ha":732,"x_min":1,"x_max":690,"o":"m 581 889 q 629 872 607 889 q 660 829 651 856 q 664 596 672 793 q 660 490 661 551 q 657 383 658 428 q 656 333 657 361 q 654 274 656 304 q 652 215 653 244 q 650 160 651 185 q 647 96 649 119 q 644 59 644 72 q 642 40 643 46 q 638 28 640 33 q 610 -6 628 6 q 569 -18 592 -18 q 556 -17 560 -18 q 516 6 532 -12 q 496 50 500 24 q 495 89 494 56 q 499 164 496 122 q 503 259 501 206 q 504 347 504 313 q 506 425 506 382 q 508 496 507 468 l 510 561 l 476 506 q 431 435 450 463 q 394 390 411 407 q 363 363 378 372 q 328 350 347 354 q 313 349 322 349 q 265 362 286 349 q 227 394 243 375 q 199 438 211 414 q 178 483 186 463 q 164 511 167 511 q 165 496 164 504 q 166 479 165 489 q 167 458 167 469 q 171 389 168 438 q 176 292 174 340 q 181 199 179 243 q 185 142 183 156 q 182 94 186 110 q 163 64 178 79 q 138 48 153 54 q 111 42 124 42 q 84 49 99 42 q 58 65 69 56 q 45 83 50 74 q 37 117 40 93 q 31 184 33 140 q 24 304 28 228 q 20 360 22 328 q 17 426 18 392 q 13 495 15 461 q 10 557 11 529 q 5 665 7 610 q 2 770 3 719 q 2 862 1 821 q 4 928 3 903 q 22 979 7 958 q 72 1000 36 1000 q 117 982 99 1000 q 126 966 119 978 q 140 940 133 954 q 160 897 146 928 q 190 833 175 865 q 215 781 204 804 q 235 735 225 758 q 257 685 246 713 q 285 618 268 657 q 303 575 296 590 q 313 552 310 560 q 317 542 315 544 q 319 540 318 540 q 353 593 322 540 q 431 724 385 646 q 474 799 457 771 q 502 842 490 826 q 524 866 514 858 q 544 879 533 874 q 563 888 556 886 q 581 889 569 889 m 676 921 q 690 899 690 907 q 682 889 690 889 q 669 899 675 889 q 629 926 658 921 q 579 932 600 932 q 558 933 561 932 q 553 939 554 933 q 581 951 551 951 q 632 946 606 951 q 676 921 658 940 z "},"N":{"ha":647,"x_min":1,"x_max":647,"o":"m 357 571 q 349 564 353 564 q 333 581 342 564 q 306 629 322 597 q 276 695 290 661 q 251 757 261 729 q 240 793 240 785 q 247 800 240 800 q 256 794 253 800 q 268 765 260 789 q 285 725 275 747 q 305 680 294 703 q 326 636 315 657 q 343 603 336 615 q 357 571 360 575 m 635 922 q 644 905 642 913 q 647 885 647 897 q 642 853 646 872 q 631 801 639 835 q 600 655 613 719 q 580 530 588 590 q 568 406 572 469 q 561 264 564 343 q 558 178 560 211 q 553 124 556 144 q 544 93 550 104 q 531 72 539 82 q 465 42 504 42 q 383 85 425 42 q 303 186 340 128 q 237 303 265 244 q 194 390 208 361 q 173 438 183 417 q 160 465 163 460 l 153 478 l 154 256 l 154 32 l 146 17 q 86 -18 124 -15 q 57 -15 68 -18 q 31 4 44 -11 q 11 35 17 19 q 6 109 8 46 q 2 255 3 172 q 1 424 1 338 q 4 568 1 510 q 9 654 6 607 q 17 745 13 701 q 26 823 22 789 q 35 869 31 857 q 59 902 42 889 q 99 915 76 915 q 174 836 153 915 q 195 774 178 819 q 236 673 213 729 q 285 558 260 617 q 331 456 310 499 q 353 410 340 436 q 377 362 365 385 q 398 323 389 339 q 408 304 407 307 q 411 325 411 303 q 413 361 411 338 q 417 414 414 385 q 422 475 419 443 q 429 536 425 507 q 458 709 440 624 q 494 881 475 794 q 518 933 501 913 q 568 956 535 953 l 579 956 q 611 947 596 956 q 635 922 626 938 z "},"O":{"ha":722,"x_min":-28,"x_max":654,"o":"m 93 97 q 101 74 114 81 q 97 72 100 72 q 83 79 94 72 q 23 146 51 101 q -21 236 -6 190 q -27 263 -26 256 q -22 274 -28 271 q -12 270 -14 274 q -7 257 -10 267 q 31 171 0 217 q 93 97 63 125 m 622 682 q 652 519 650 599 q 631 349 654 439 q 588 233 617 289 q 517 135 558 178 q 422 66 475 92 q 303 40 368 40 q 192 68 242 40 q 104 140 142 96 q 42 238 67 183 q 8 346 18 292 q 4 389 6 363 q 3 443 3 415 q 4 497 3 471 q 8 540 6 524 q 106 789 35 689 q 208 892 149 849 q 344 935 268 935 q 443 913 399 935 q 522 856 488 892 q 582 776 557 821 q 622 682 607 731 m 478 360 q 495 433 490 399 q 499 515 500 468 q 476 642 496 579 q 413 753 457 704 q 379 777 394 772 q 339 782 364 782 q 305 772 319 782 q 263 733 290 763 q 231 697 243 713 q 208 667 218 682 q 192 637 199 653 q 178 599 185 621 q 153 466 156 532 q 164 344 150 400 q 207 249 178 289 q 279 196 236 210 q 307 192 292 192 q 360 203 340 192 q 428 264 396 221 q 478 360 460 307 z "},"P":{"ha":497,"x_min":-71,"x_max":513,"o":"m 465 840 q 510 687 508 769 q 475 521 513 604 q 353 371 432 428 q 165 299 274 314 q 136 293 136 294 q 135 284 135 293 q 133 264 135 275 q 131 206 132 235 q 128 155 129 178 q 126 117 128 132 q 124 97 125 101 q 94 58 117 71 q 47 44 72 44 q 5 60 24 44 q -21 97 -14 75 q -23 115 -22 103 q -22 142 -24 128 q -21 213 -22 164 q -17 326 -19 263 q -9 460 -14 390 q 2 591 -4 529 q 16 699 8 653 q 33 760 24 744 q 90 794 56 794 q 139 772 118 794 q 155 740 153 758 q 151 665 157 722 q 147 597 149 638 q 143 524 144 556 l 142 447 l 150 449 q 163 451 153 449 q 185 456 174 453 q 302 526 257 475 q 357 651 347 578 q 328 774 367 722 q 283 816 310 799 q 226 844 257 833 q 163 859 196 854 q 101 864 131 864 q 28 853 64 864 q -7 846 4 846 q -35 854 -22 846 q -69 906 -67 872 q -43 963 -71 939 q 35 995 -18 983 q 146 1007 89 1007 q 328 965 240 1007 q 465 840 415 924 m 274 1026 q 251 1035 256 1032 q 250 1044 247 1038 q 260 1047 251 1047 q 309 1038 281 1047 q 366 1013 338 1028 q 420 981 394 999 q 460 949 446 964 q 476 932 472 938 q 476 921 479 926 q 469 914 475 914 q 446 932 463 914 q 374 987 422 961 q 274 1026 326 1013 z "},"Q":{"ha":799,"x_min":-14,"x_max":742,"o":"m 726 136 q 733 80 742 108 q 696 38 724 51 q 658 29 679 29 q 629 35 640 29 q 601 53 617 42 q 546 99 586 64 l 500 139 l 485 126 q 401 72 440 90 q 313 50 363 54 q 244 55 274 50 q 178 78 214 60 q 59 186 107 114 q -7 354 11 258 q -12 397 -10 371 q -14 451 -14 424 q -12 506 -14 479 q -7 549 -10 532 q 44 719 11 649 q 133 847 78 790 q 222 917 176 892 q 329 943 267 943 q 442 915 392 943 q 528 841 492 886 q 588 740 564 796 q 624 629 613 685 q 634 458 642 546 q 594 292 626 371 q 585 267 586 272 q 589 260 585 263 q 619 237 597 254 q 663 199 640 219 q 704 162 686 179 q 726 136 722 144 m 479 442 q 483 477 482 460 q 483 525 485 494 q 461 651 481 589 q 397 761 442 714 q 369 783 382 776 q 336 792 356 790 l 329 792 q 291 782 307 792 q 247 743 275 772 q 215 707 228 722 q 193 677 203 692 q 176 647 183 663 q 163 608 169 631 q 138 475 140 542 q 149 353 135 408 q 192 259 163 299 q 264 204 221 219 q 276 201 269 201 q 290 201 283 201 q 334 207 317 201 q 371 228 351 213 l 382 236 l 344 264 q 313 286 329 275 q 286 303 296 297 q 244 337 256 322 q 233 375 233 351 q 252 421 233 403 q 299 439 271 439 q 319 436 311 439 q 346 425 328 433 q 377 407 357 418 q 415 385 397 396 q 446 367 433 374 q 460 361 458 360 q 469 390 463 364 q 479 442 475 417 m 528 900 q 517 914 518 907 q 524 922 515 921 q 579 876 538 925 q 613 832 600 851 q 640 783 625 813 q 661 715 668 725 q 651 711 660 711 q 644 715 647 711 q 628 762 640 735 q 599 816 615 789 q 563 866 582 843 q 528 900 544 889 z "},"R":{"ha":542,"x_min":-104,"x_max":489,"o":"m 407 218 q 464 150 456 165 q 461 78 482 113 q 400 43 440 43 q 378 45 388 43 q 359 55 369 47 q 334 77 349 63 q 297 115 319 92 q 249 166 274 139 q 211 208 224 193 l 179 243 l 178 157 q 177 101 178 122 q 174 69 176 81 q 169 52 172 58 q 158 38 165 46 q 100 13 138 13 q 63 24 81 13 q 38 54 46 36 q 33 65 35 58 q 31 90 32 71 q 30 149 31 110 q 28 258 29 188 q 27 342 28 299 q 26 428 26 386 q 24 508 25 471 q 22 569 24 544 q 21 647 21 619 q 22 691 21 675 q 27 714 24 707 q 38 728 31 721 q 86 750 56 750 q 119 742 103 750 q 143 717 135 733 q 154 676 150 706 q 164 579 158 647 q 169 537 167 556 q 172 517 171 518 q 183 522 174 515 q 207 538 193 528 q 235 561 221 549 q 260 585 250 574 q 313 662 299 625 q 313 725 326 699 q 275 763 303 744 q 215 790 247 782 q 190 794 204 793 q 158 796 175 796 q 89 788 126 796 q 25 758 51 779 q -24 738 3 738 q -62 751 -44 738 q -86 785 -79 764 q -17 894 -104 843 q 77 931 22 918 q 178 944 132 944 q 266 931 222 944 q 348 894 310 918 q 416 837 386 871 q 461 761 446 803 q 468 734 467 744 q 469 696 469 724 q 453 609 469 650 q 411 531 438 568 q 351 463 385 494 q 283 407 318 432 q 257 385 257 388 q 274 365 257 383 q 314 319 290 346 q 363 265 338 293 q 407 218 389 238 m 485 857 q 481 840 489 840 q 460 857 472 840 q 428 892 449 874 q 381 928 407 911 q 329 958 356 944 q 279 978 303 972 q 265 993 258 982 q 274 996 268 996 q 327 980 293 996 q 395 942 361 964 q 455 897 429 921 q 485 857 481 874 z "},"S":{"ha":575,"x_min":26,"x_max":593,"o":"m 153 946 q 97 878 118 913 q 53 786 75 844 q 35 754 43 754 q 31 757 33 754 q 32 781 26 761 q 48 825 38 800 q 72 876 58 850 q 100 919 86 901 q 142 965 119 944 q 172 985 164 985 q 181 977 185 985 q 153 946 176 969 m 504 950 q 571 843 549 910 q 586 707 593 776 q 579 655 585 686 q 563 594 574 624 q 535 544 553 565 q 488 524 517 524 q 459 533 475 524 q 436 554 443 543 q 426 584 426 569 q 432 628 425 599 q 442 702 440 660 q 438 767 444 744 q 430 794 435 779 q 417 821 425 808 q 397 842 408 833 q 371 851 386 851 q 335 843 353 851 q 301 822 317 835 q 272 793 285 808 q 250 764 258 778 q 225 694 232 732 q 224 624 218 656 q 235 590 228 606 q 256 558 242 575 q 292 519 269 540 q 347 467 314 497 q 406 413 375 442 q 461 353 436 385 q 503 285 486 321 q 522 208 521 249 q 450 51 528 118 q 360 2 411 18 q 260 -14 310 -14 q 215 -10 232 -14 q 112 56 150 6 q 79 171 74 107 q 86 219 82 193 q 101 266 90 244 q 128 301 111 288 q 174 315 146 315 q 217 301 197 315 q 243 258 236 286 q 246 240 246 247 q 240 215 246 232 q 235 191 238 204 q 232 169 232 178 q 231 151 231 156 q 236 144 232 147 q 264 136 244 136 q 317 147 288 136 q 361 174 346 158 q 370 209 375 189 q 342 261 365 229 q 305 302 329 278 q 228 371 281 326 q 163 433 183 410 q 122 483 142 456 q 78 581 92 528 q 72 688 65 635 q 102 801 78 744 q 165 901 126 857 q 256 974 204 946 q 369 1001 308 1001 q 440 989 406 1001 q 504 950 475 976 z "},"T":{"ha":460,"x_min":14,"x_max":732,"o":"m 117 997 q 128 1007 108 1007 q 145 1006 135 1007 q 171 1004 156 1006 q 215 1000 196 1001 q 251 999 235 999 q 331 1007 285 999 l 335 1007 q 347 993 356 1007 q 315 984 344 988 q 250 981 286 981 q 221 982 242 981 q 178 985 200 983 q 138 990 156 988 q 117 997 119 993 m 671 981 q 708 962 693 976 q 727 928 722 947 q 728 890 732 910 q 707 856 724 871 q 683 840 700 849 q 639 828 674 836 q 563 813 604 821 q 485 800 522 806 q 436 794 449 794 q 425 792 425 794 q 423 767 425 790 q 418 710 421 744 q 412 633 415 675 q 406 551 408 590 q 401 484 403 517 q 399 415 399 451 q 399 334 399 378 q 401 233 400 290 l 404 85 l 397 69 q 350 26 383 35 q 329 22 338 22 q 291 35 310 22 q 264 67 272 49 q 258 84 260 74 q 253 116 256 94 q 251 172 251 138 q 249 263 250 207 q 247 390 247 333 q 250 499 247 447 q 258 601 253 550 q 274 710 264 651 q 282 765 279 742 q 285 789 283 778 q 269 792 285 790 q 231 796 253 793 q 42 833 75 810 q 22 856 31 840 q 14 888 14 872 q 35 933 14 915 q 82 951 56 951 q 117 947 92 951 q 139 944 128 946 q 167 942 150 943 q 211 942 185 942 q 281 942 238 942 q 372 942 338 942 q 435 946 406 943 q 495 953 464 949 q 575 968 526 958 q 630 979 613 976 q 657 982 647 982 q 671 981 667 982 z "},"U":{"ha":678,"x_min":-56,"x_max":608,"o":"m 54 43 q 68 28 67 35 q 58 19 69 21 l 56 19 q 36 29 47 19 q -20 106 4 57 q -53 206 -44 154 q -55 227 -56 222 q -51 236 -54 232 q -44 240 -47 240 q -36 219 -39 240 q -24 169 -33 196 q -3 117 -15 142 q 25 73 10 93 q 54 43 40 53 m 596 713 q 578 642 585 672 q 565 567 572 611 q 556 473 558 518 q 553 379 553 428 q 558 275 554 331 q 571 150 563 219 q 576 105 574 128 q 582 71 579 82 q 585 47 585 56 q 583 28 586 38 q 557 -15 576 1 q 513 -31 538 -31 q 490 -26 501 -31 q 432 53 444 -12 q 428 82 431 61 q 422 128 425 103 q 415 176 418 153 q 411 213 413 200 q 410 218 411 218 q 394 196 408 218 q 358 144 379 169 q 310 97 336 118 q 255 63 285 76 q 192 50 225 50 q 181 51 186 50 q 168 53 175 51 q 25 192 61 68 q 26 542 -11 317 q 42 621 31 571 q 72 723 54 671 q 110 818 89 775 q 156 874 132 861 q 192 883 171 883 q 226 874 210 883 q 250 846 242 864 q 244 782 264 817 q 210 685 226 747 q 181 553 193 624 q 162 415 168 483 q 160 299 156 347 q 172 228 163 254 q 192 203 181 203 q 253 256 215 203 q 326 393 290 310 q 354 465 338 419 q 388 561 371 511 q 421 659 406 611 q 444 738 436 707 q 469 806 458 786 q 501 836 481 826 q 532 843 514 843 q 576 829 556 843 q 603 792 596 815 q 608 762 608 774 q 596 713 607 750 z "},"V":{"ha":510,"x_min":-115,"x_max":553,"o":"m 150 683 q 71 800 121 746 q 67 825 50 824 q 83 815 71 826 q 110 784 96 803 q 140 743 125 765 q 165 700 156 721 q 179 665 178 675 q 172 653 181 654 q 164 657 168 651 q 150 683 160 663 m 544 860 q 551 841 549 850 q 549 817 553 832 q 535 775 544 801 q 506 703 525 749 q 453 569 475 625 q 416 463 432 514 q 385 358 400 413 q 351 229 371 304 q 330 147 340 185 q 315 101 319 110 q 284 63 304 76 q 240 49 264 49 q 218 51 232 49 q 161 104 183 61 q 144 149 158 110 q 114 240 131 189 q 78 341 96 292 q 53 410 61 390 q 15 500 36 451 q -28 592 -7 549 q -67 670 -49 636 q -93 717 -85 704 q -108 744 -106 732 q -98 799 -115 776 q -50 825 -81 822 l -42 825 q 1 810 -18 825 q 47 750 19 794 q 99 663 76 704 q 142 581 122 622 q 181 499 163 540 q 215 410 199 457 q 225 383 221 394 q 231 371 229 371 q 235 383 232 371 q 244 414 239 396 q 262 471 250 432 q 290 558 274 510 q 326 659 307 607 q 364 757 346 711 q 398 836 382 803 q 425 881 414 869 q 448 897 438 893 q 478 901 458 901 q 544 860 525 901 z "},"W":{"ha":875,"x_min":24,"x_max":849,"o":"m 700 49 q 725 67 717 67 q 732 63 731 67 q 715 31 736 51 q 664 -4 694 11 q 600 -24 632 -19 q 532 -28 568 -28 q 510 -27 518 -28 q 494 -24 503 -26 q 461 -9 478 -18 q 431 9 444 0 q 410 26 418 18 q 403 38 401 33 q 408 43 406 43 q 429 32 414 43 q 467 10 444 21 q 506 -6 489 0 q 539 -10 522 -10 l 554 -10 q 700 49 650 -1 m 843 642 q 845 533 849 590 q 831 417 842 475 q 801 304 819 358 q 760 206 783 250 q 665 88 719 129 q 551 46 611 46 q 417 126 469 46 l 401 149 l 389 128 q 318 51 361 85 q 221 18 275 18 q 206 19 214 18 q 192 21 199 19 q 163 33 179 24 q 29 307 60 85 q 25 360 26 329 q 24 425 24 392 q 25 491 24 458 q 31 549 26 524 q 44 622 35 581 q 63 702 53 663 q 86 776 74 742 q 108 831 99 810 q 178 881 133 881 q 233 851 215 881 q 235 785 250 821 q 185 564 208 721 q 180 532 182 546 q 177 503 178 518 q 176 470 176 489 q 176 422 176 451 q 181 304 176 365 q 213 192 186 243 q 228 174 222 174 q 242 183 233 174 q 339 385 294 242 q 349 413 343 399 q 357 432 354 426 q 426 476 378 476 q 478 457 454 476 q 491 442 486 450 q 500 422 496 435 q 507 391 504 410 q 513 343 510 372 q 516 314 513 338 q 524 265 519 290 q 537 218 529 239 q 554 197 544 197 q 568 203 561 197 q 626 278 597 221 q 674 410 656 335 q 688 481 685 450 q 693 556 692 511 q 693 621 694 592 q 687 676 692 650 q 673 726 682 701 q 651 781 664 751 q 635 817 642 800 q 625 840 628 833 q 639 903 617 874 q 694 933 661 933 q 744 916 726 933 q 786 846 763 899 q 826 744 814 789 q 843 642 838 700 z "},"X":{"ha":683,"x_min":-8,"x_max":661,"o":"m 264 829 q 193 914 242 863 q 168 944 172 936 q 174 954 164 953 q 194 940 178 954 q 228 904 210 925 q 264 863 247 883 q 286 832 281 843 q 281 811 296 811 q 264 829 275 811 m 650 85 q 649 30 661 57 q 613 -8 638 3 q 583 -14 601 -14 q 553 -8 564 -14 q 535 3 543 -3 q 518 24 528 8 q 493 69 508 39 q 451 153 478 99 q 405 245 426 203 q 367 318 383 288 q 340 365 350 349 q 328 381 329 382 q 316 363 326 379 q 292 321 306 346 q 261 265 278 296 q 229 207 244 235 q 202 156 214 179 q 185 124 190 133 q 154 72 165 85 q 124 53 143 60 q 103 50 117 50 q 47 78 69 50 q 32 144 24 107 q 47 183 35 156 q 78 244 60 210 q 117 318 96 279 q 159 392 139 357 q 195 453 179 426 q 218 492 211 481 q 232 514 226 504 q 238 525 238 524 q 224 549 238 528 q 189 600 210 569 q 143 665 168 631 q 95 731 118 700 q 56 785 72 763 q 33 815 39 808 q 36 910 -8 869 q 78 928 54 928 q 99 925 92 928 q 147 889 117 919 q 209 821 178 858 q 267 747 240 783 q 306 694 294 711 l 331 660 l 354 692 q 394 742 365 707 q 454 815 422 778 q 517 881 486 851 q 565 917 549 911 q 577 919 572 918 q 588 919 582 919 q 635 899 614 919 q 648 878 644 888 q 651 853 651 869 q 646 826 651 838 q 624 797 640 815 q 513 656 583 754 q 453 572 474 600 q 426 533 433 544 q 421 521 419 522 q 424 515 422 519 q 441 488 429 507 q 466 446 453 468 q 492 402 479 424 q 511 367 504 381 q 543 305 521 349 q 588 215 565 261 q 630 130 611 168 q 650 85 649 92 z "},"Y":{"ha":672,"x_min":0,"x_max":638,"o":"m 593 340 q 506 113 567 197 q 336 -10 444 29 q 210 -32 274 -32 q 165 -27 190 -32 q 117 -13 140 -22 q 75 10 94 -4 q 47 42 56 24 q 50 114 29 79 q 114 149 71 149 q 133 146 125 149 q 160 135 142 143 q 188 122 181 124 q 214 119 196 119 q 316 146 267 119 q 393 215 365 172 q 422 277 410 242 q 443 351 435 313 q 456 427 451 389 q 460 497 460 465 l 461 510 l 443 488 q 351 407 401 435 q 249 379 301 379 q 158 400 199 379 q 88 455 118 421 q 39 532 58 489 q 10 619 19 575 q 1 695 3 650 q 3 785 0 740 q 14 867 7 831 q 31 918 21 904 q 55 939 38 929 q 83 949 72 949 q 121 937 103 949 q 146 906 139 925 q 149 886 149 896 q 147 840 150 876 q 154 663 139 740 q 249 531 182 531 q 293 547 271 531 q 359 636 329 575 q 422 811 389 697 q 434 851 429 836 q 442 874 439 865 q 449 889 446 883 q 458 900 453 894 q 510 924 479 924 q 572 896 542 924 q 585 880 581 888 q 593 855 590 872 q 599 808 596 838 q 604 725 601 778 q 611 507 614 596 q 593 340 608 418 m 635 235 q 638 226 638 231 q 631 206 638 222 q 567 83 606 133 q 461 -14 528 32 q 432 -29 440 -29 q 426 -25 429 -29 q 424 -18 424 -21 q 433 -11 428 -15 q 454 6 442 -6 q 519 59 488 29 q 571 125 551 89 q 592 167 579 138 q 614 221 606 197 q 629 238 621 238 q 635 235 632 238 z "},"Z":{"ha":683,"x_min":25,"x_max":674,"o":"m 333 968 q 319 969 321 968 q 318 978 318 971 q 326 984 318 982 q 381 992 333 986 q 449 1002 417 996 q 501 1015 481 1008 q 525 1019 518 1019 q 535 1011 535 1019 q 508 995 535 1003 q 445 981 481 988 q 377 972 410 975 q 333 968 344 968 m 567 672 q 479 532 518 593 q 407 421 440 471 q 345 329 374 371 q 288 247 317 288 l 258 208 l 292 210 q 360 208 326 210 q 428 200 393 206 q 467 190 440 197 q 522 176 494 183 q 573 161 550 168 q 601 151 596 154 q 638 107 629 136 q 632 50 647 78 q 605 22 622 32 q 568 13 588 13 q 506 25 551 13 q 417 47 460 38 q 325 57 374 57 q 260 55 296 57 q 189 49 225 53 q 153 44 168 46 q 126 43 138 43 q 83 51 100 43 q 42 95 54 65 q 43 157 31 125 q 50 172 46 164 q 64 195 54 181 q 92 234 74 210 q 139 299 110 258 q 206 393 175 347 q 270 488 238 439 q 337 590 303 536 q 411 707 371 643 l 456 779 l 444 776 q 257 763 367 763 q 203 763 231 763 q 146 765 176 763 q 83 772 100 768 q 50 786 65 775 q 30 820 35 797 q 32 863 25 843 q 49 885 36 874 q 74 899 63 896 q 106 901 79 900 q 168 904 133 903 q 253 908 213 906 q 334 915 293 910 q 418 926 375 919 q 513 942 461 932 q 586 951 565 951 q 614 947 601 951 q 659 909 644 936 q 667 850 674 882 q 661 831 665 842 q 647 803 657 821 q 617 753 636 785 q 567 672 599 722 z "},"z":{"ha":572,"x_min":-6,"x_max":561,"o":"m 519 549 q 474 390 539 483 q 256 165 410 297 l 204 121 l 221 119 q 261 116 228 118 q 335 111 294 114 q 401 106 376 108 q 440 101 425 104 q 461 93 454 97 q 476 81 468 89 q 498 34 496 61 q 482 -15 500 7 q 447 -40 471 -35 q 404 -44 424 -44 q 322 -40 376 -44 q 210 -31 256 -36 q 133 -21 164 -26 q 81 -8 101 -15 q 46 10 61 -1 q 5 62 15 29 q 8 126 -6 94 q 21 150 14 139 q 42 176 28 161 q 81 213 57 192 q 146 269 106 235 q 344 468 289 392 l 363 494 l 353 496 q 279 493 317 496 q 206 483 242 490 q 167 476 190 481 q 129 468 144 472 q 100 463 114 465 q 83 460 86 460 q 47 471 64 460 q 22 497 29 482 q 19 542 13 518 q 43 578 25 565 q 115 606 58 589 q 236 636 171 622 q 282 643 264 642 q 339 644 300 644 q 395 642 367 644 q 448 629 424 639 q 492 600 472 619 q 519 549 511 581 m 531 671 q 557 639 561 650 q 550 633 556 633 q 535 642 543 633 q 474 678 504 667 q 407 694 444 690 q 384 697 388 696 q 381 704 381 699 q 399 714 381 714 q 468 702 435 714 q 531 671 501 690 z "},"y":{"ha":531,"x_min":-24,"x_max":475,"o":"m 64 24 q 35 53 49 36 q 13 83 21 69 q 3 107 4 97 q 10 117 1 117 q 28 94 15 117 q 87 31 54 54 q 149 8 119 8 q 171 -1 171 8 q 154 -14 171 -14 q 144 -13 150 -14 q 131 -11 138 -12 q 64 24 99 -4 m 467 331 q 473 252 471 288 q 474 183 475 217 q 471 117 474 150 q 464 49 468 85 q 396 -184 446 -96 q 256 -317 346 -272 q 136 -347 194 -347 q 75 -336 104 -347 q 22 -301 46 -325 q -11 -210 -24 -258 q 17 -173 -4 -187 q 63 -158 39 -158 q 117 -183 92 -158 q 128 -192 124 -190 q 139 -194 132 -194 l 149 -194 q 234 -149 199 -189 q 285 -65 269 -110 q 294 -37 289 -56 q 303 -1 299 -19 q 311 35 308 18 q 314 58 314 51 q 313 65 314 65 q 304 63 313 65 q 267 51 292 56 q 224 46 242 46 q 120 77 168 46 q 46 163 72 108 q 13 281 22 211 q 13 428 4 351 q 38 533 22 506 q 89 561 53 560 q 122 556 108 561 q 147 533 136 551 q 153 524 151 528 q 155 509 154 519 q 155 478 156 499 q 153 422 154 458 q 153 344 150 375 q 165 275 156 314 q 222 196 186 196 q 266 215 247 196 q 297 262 285 235 q 316 319 310 289 q 322 371 322 350 q 329 464 322 424 q 347 519 336 504 q 401 549 367 549 q 444 532 426 549 q 457 519 453 525 q 463 505 461 514 q 465 482 465 496 q 464 443 465 468 q 463 386 463 411 q 467 331 464 361 z "},"x":{"ha":517,"x_min":-15,"x_max":539,"o":"m 526 714 q 508 644 539 675 q 491 626 501 638 q 474 603 481 614 q 438 552 464 590 q 383 472 411 514 q 334 396 356 429 q 313 361 313 363 q 319 349 313 360 q 335 322 325 338 q 361 280 346 306 q 392 229 376 254 q 419 184 407 204 q 433 157 431 164 q 443 117 444 138 q 433 81 442 97 q 408 56 424 65 q 372 46 392 46 q 351 49 365 46 q 333 56 342 51 q 315 72 325 61 q 294 99 306 82 q 267 144 283 117 q 240 191 251 172 q 226 208 228 210 q 217 190 225 207 q 199 153 208 174 q 180 113 189 132 q 168 85 171 93 q 159 63 164 74 q 151 49 154 51 q 93 19 129 19 q 60 28 76 19 q 26 62 38 39 q 18 108 14 85 q 101 294 28 154 q 119 328 113 317 q 127 347 125 340 q 129 356 129 353 q 126 361 129 358 q 109 386 121 369 q 83 422 97 403 q 53 458 68 440 q 28 488 39 475 q -8 535 0 519 q -12 569 -15 551 q 10 609 -8 593 q 53 625 29 625 q 67 624 61 625 q 99 606 82 619 q 161 546 117 592 l 215 490 l 238 525 q 292 599 257 553 q 361 685 326 644 q 420 747 401 733 q 463 761 439 761 q 503 748 486 761 q 526 714 519 735 m 290 683 q 285 688 288 683 q 291 713 279 694 q 328 758 303 731 q 442 829 397 832 q 451 819 451 828 q 436 808 451 814 q 365 767 399 799 q 307 704 331 735 q 290 683 294 683 z "},"w":{"ha":853,"x_min":1,"x_max":783,"o":"m 133 0 q 158 -8 153 -6 q 160 -17 163 -10 q 147 -24 157 -24 q 97 -10 121 -24 q 54 21 74 3 q 15 69 29 44 q 13 99 1 94 q 15 100 15 100 q 32 79 21 100 q 59 44 40 64 q 93 14 78 25 q 133 0 110 4 m 768 550 q 776 504 772 533 q 781 444 779 475 q 783 383 783 413 q 779 333 782 353 q 752 235 772 286 q 701 142 732 185 q 626 72 669 100 q 528 44 582 44 q 461 57 490 44 q 403 99 432 69 l 379 122 l 365 104 q 315 59 346 78 q 256 33 285 40 q 240 31 249 31 q 219 31 231 31 q 205 31 213 31 q 192 32 197 31 q 150 45 172 35 q 111 71 128 56 q 36 194 64 111 q 8 378 8 276 q 13 447 8 410 q 26 522 18 485 q 46 595 35 560 q 69 657 57 631 q 104 708 86 693 q 149 724 122 724 q 177 719 167 724 q 199 703 188 714 q 203 621 232 667 q 176 535 186 593 q 163 401 165 478 q 190 215 158 276 q 206 189 200 196 q 222 182 213 182 q 272 237 244 182 q 317 372 299 292 q 331 422 325 407 q 350 447 338 436 q 375 462 364 458 q 404 465 386 465 q 461 429 442 461 l 471 414 l 471 351 q 474 278 471 300 q 492 231 478 257 q 528 194 510 194 q 578 231 550 194 q 621 313 606 267 q 631 383 629 338 q 626 478 633 428 q 623 532 622 517 q 631 561 624 547 q 696 603 653 603 q 719 599 707 603 q 748 580 732 596 q 768 550 764 564 z "},"v":{"ha":490,"x_min":-14,"x_max":449,"o":"m 149 7 q 163 0 160 3 q 167 -7 167 -3 q 156 -15 167 -15 q 124 -6 139 -15 q 94 15 108 3 q 69 42 81 28 q 50 69 58 57 q 28 113 32 96 q 38 126 25 129 q 47 114 43 125 q 88 50 58 82 q 149 7 117 18 m 449 515 q 442 440 449 486 q 422 341 435 393 q 390 236 410 289 q 345 141 371 183 q 286 72 319 99 q 213 46 253 46 q 144 69 174 46 q 94 128 115 93 q 59 201 74 163 q 36 271 44 240 q 22 321 31 289 q 7 386 14 353 q -6 447 0 419 q -12 485 -11 475 q -12 505 -14 499 q -4 522 -11 511 q 51 557 14 557 q 122 492 106 557 q 138 440 125 481 q 165 352 150 399 q 195 267 181 306 q 215 222 210 229 q 222 230 217 221 q 233 253 226 239 q 247 284 240 267 q 258 317 254 301 q 285 414 276 369 q 297 504 294 458 q 301 542 299 524 q 313 576 304 561 q 335 600 321 590 q 374 610 350 610 q 433 581 418 610 q 449 515 449 551 z "},"u":{"ha":503,"x_min":-1,"x_max":446,"o":"m 158 4 q 190 0 185 1 q 193 -8 194 -1 q 189 -15 192 -14 q 171 -17 186 -15 q 151 -15 163 -17 q 129 -11 139 -14 q 98 0 115 -8 q 65 19 81 8 q 37 43 50 31 q 18 68 24 56 q 19 82 14 76 q 24 85 22 85 q 44 65 26 85 q 158 4 92 13 m 438 151 q 446 73 446 96 q 439 36 446 50 q 374 -6 417 -6 q 323 15 342 -6 q 297 64 304 35 l 296 72 l 281 65 q 201 47 246 47 q 101 78 146 47 q 33 158 57 110 q 6 238 14 199 q 1 340 -1 278 q 49 553 6 499 q 100 575 67 575 q 149 556 131 575 q 164 521 161 542 q 160 482 167 500 q 146 372 146 454 q 161 242 146 288 q 204 197 176 197 q 235 223 219 197 q 264 293 250 249 q 272 326 271 313 q 275 371 274 340 q 281 444 276 406 q 290 517 285 482 q 300 578 294 551 q 311 615 306 606 q 371 650 329 650 q 390 649 383 650 q 404 642 396 647 q 433 561 442 618 q 427 469 429 524 q 425 358 425 415 q 428 247 425 301 q 438 151 432 192 z "},"t":{"ha":510,"x_min":-97,"x_max":456,"o":"m 121 -71 q 133 -90 143 -81 q 126 -94 132 -94 q 107 -86 122 -94 q 57 -47 79 -71 q 15 18 35 -22 q 1 52 3 42 q 6 65 -1 63 q 15 63 11 67 q 24 44 18 58 q 63 -22 38 8 q 121 -71 88 -51 m 450 221 q 454 185 456 207 q 446 139 453 164 q 427 87 439 114 q 400 36 415 60 q 332 -32 372 -4 q 242 -60 292 -60 q 141 -26 185 -60 q 74 56 97 7 q 29 215 43 117 q 22 433 15 314 q 26 497 24 464 q 32 547 29 529 q 34 563 33 556 q 35 576 35 571 q 36 589 36 583 l 32 589 q 19 588 28 589 q 0 586 11 588 q -15 585 -8 585 q -28 585 -22 585 q -74 600 -57 585 q -96 653 -97 621 q -69 703 -94 685 q -33 717 -58 711 q 29 728 -7 724 l 68 731 l 72 753 q 140 811 89 811 q 204 747 200 811 l 207 728 l 244 724 q 292 715 279 718 q 317 703 306 711 q 343 673 335 690 q 351 637 351 656 q 340 602 350 618 q 311 576 331 586 q 278 568 294 568 q 256 569 268 568 q 224 574 243 571 q 196 578 210 578 q 185 579 190 579 q 181 552 183 578 q 176 492 178 526 q 172 422 174 457 q 171 367 171 388 q 183 213 171 282 q 215 113 196 144 q 240 92 228 92 q 262 104 251 92 q 281 134 272 117 q 297 168 290 151 q 304 193 303 185 q 314 227 308 215 q 331 250 319 239 q 379 269 353 269 q 423 256 403 269 q 450 221 443 243 z "},"s":{"ha":428,"x_min":-15,"x_max":386,"o":"m 6 606 q -6 593 -1 593 q -8 594 -7 593 q -10 594 -8 594 q -13 606 -15 596 q -4 626 -11 615 q 16 650 3 635 q 44 679 29 665 q 75 703 60 693 q 100 714 90 714 q 107 706 107 714 q 97 693 107 697 q 73 676 88 688 q 45 651 58 664 q 21 626 32 639 q 6 606 10 614 m 379 567 q 385 540 383 551 q 386 506 386 529 q 372 438 386 468 q 315 407 358 407 q 263 435 282 407 q 254 453 256 446 q 251 486 253 460 q 248 519 249 514 q 240 531 247 525 q 225 538 233 538 q 178 509 193 538 q 163 454 163 481 q 165 430 163 440 q 174 408 167 419 q 197 379 181 396 q 239 335 213 363 q 286 283 265 307 q 314 250 307 260 q 353 127 354 189 q 313 13 353 65 q 264 -29 294 -10 q 203 -56 233 -49 q 178 -60 192 -58 q 150 -61 164 -61 q 128 -60 133 -61 q 53 -28 88 -53 q 4 28 19 -4 q 5 89 -10 58 q 51 129 19 119 q 72 132 58 132 q 131 106 100 132 q 160 90 146 90 q 178 94 168 90 q 201 121 197 103 q 192 161 204 139 q 126 233 181 179 q 58 310 79 281 q 24 371 36 339 q 22 531 -4 451 q 96 640 44 597 q 218 683 147 683 q 379 567 338 683 z "},"r":{"ha":481,"x_min":14,"x_max":439,"o":"m 439 517 q 379 444 436 458 q 367 443 375 443 q 313 464 338 443 q 285 476 299 476 q 258 467 272 476 q 230 446 243 458 q 206 420 217 433 q 188 399 194 407 l 174 376 l 175 315 q 177 247 176 290 q 181 167 178 203 q 183 92 183 110 q 178 64 182 75 q 152 25 172 40 q 108 10 132 10 q 59 30 79 10 q 33 78 39 50 q 31 133 32 83 q 26 249 29 183 q 24 317 25 282 q 22 385 22 353 q 19 446 21 418 q 17 490 18 474 q 15 552 15 529 q 15 588 14 575 q 17 606 15 600 q 22 619 18 613 q 48 645 32 636 q 81 654 64 654 q 121 639 106 654 q 147 586 143 621 l 150 571 l 169 586 q 231 619 201 610 q 300 628 261 628 q 345 618 321 626 q 390 595 369 610 q 425 561 411 581 q 439 517 439 542 m 224 667 q 206 660 210 660 q 200 663 203 660 q 215 683 190 672 q 258 698 238 694 q 310 703 279 701 q 342 701 335 703 q 361 694 350 700 q 375 681 375 688 q 365 674 375 674 q 349 678 360 674 q 310 683 338 683 q 263 679 288 683 q 224 667 239 675 z "},"q":{"ha":588,"x_min":13,"x_max":526,"o":"m 31 600 q 24 610 24 600 q 49 653 24 622 q 106 706 75 683 q 124 718 111 710 q 152 734 138 726 q 180 747 167 742 q 201 753 193 753 q 207 749 206 753 q 206 737 211 742 q 178 724 200 732 q 103 679 143 711 q 46 615 63 647 q 31 600 39 600 m 508 721 q 524 693 521 707 q 522 650 526 679 q 519 605 521 636 q 515 543 518 574 q 514 467 515 518 q 512 354 513 417 q 510 224 511 292 q 509 96 510 156 q 508 -10 508 36 q 508 -72 508 -56 q 508 -135 511 -119 q 492 -164 506 -150 q 436 -189 467 -189 q 422 -187 426 -189 q 400 -179 408 -185 q 382 -162 392 -174 q 369 -147 374 -154 q 363 -125 365 -139 q 360 -88 361 -111 q 358 -28 358 -65 q 356 47 357 33 q 351 60 354 61 q 313 48 332 51 q 265 44 294 44 q 227 46 238 44 q 201 53 217 47 q 103 113 144 72 q 40 210 63 154 q 15 331 17 265 q 33 465 13 397 q 106 601 57 539 q 231 688 156 664 q 256 696 246 694 q 281 697 265 697 l 300 697 q 347 694 328 697 q 386 683 367 692 q 393 686 392 682 q 414 725 403 714 q 460 744 436 744 q 508 721 489 744 m 365 475 q 368 513 368 500 q 366 533 368 526 q 358 543 364 540 q 342 550 353 546 q 311 556 326 556 q 235 518 272 556 q 198 469 214 497 q 174 408 182 440 q 165 344 165 376 q 172 285 164 313 q 206 222 183 249 q 268 196 228 196 q 313 208 294 196 q 349 239 332 219 l 360 256 l 360 336 q 361 410 360 369 q 365 475 363 450 z "},"p":{"ha":522,"x_min":28,"x_max":467,"o":"m 428 113 q 422 83 443 110 q 393 54 413 71 q 351 22 374 38 q 306 -3 329 7 q 267 -14 283 -14 q 258 -10 261 -14 q 281 8 254 0 q 404 94 360 36 q 428 113 422 114 m 463 443 q 467 388 467 422 q 461 329 467 353 q 378 155 444 229 q 218 46 311 81 l 186 35 l 186 14 q 184 -55 186 -11 q 180 -141 182 -99 q 176 -215 178 -183 q 174 -251 175 -247 q 101 -304 156 -304 q 39 -267 61 -304 l 29 -250 l 31 -156 q 32 -37 32 -103 q 32 94 32 28 q 31 225 32 161 q 29 339 31 289 q 29 488 28 429 q 38 610 31 547 q 49 658 40 642 q 75 683 57 674 q 94 690 86 689 q 131 692 103 692 q 240 674 186 692 q 340 623 294 656 q 417 544 385 590 q 463 443 450 499 m 296 306 q 303 442 333 381 q 259 497 289 469 q 196 539 229 524 l 172 549 l 171 515 q 172 472 171 501 q 175 414 172 442 q 179 344 178 386 q 182 269 181 301 q 184 216 183 238 q 186 194 185 194 q 206 206 190 194 q 296 306 264 240 z "},"o":{"ha":538,"x_min":-10,"x_max":485,"o":"m 114 599 q 83 575 100 590 q 51 543 67 560 q 24 511 36 526 q 10 486 13 496 q 1 479 7 479 q -6 483 -4 479 q 6 518 -10 494 q 49 571 21 542 q 94 610 74 596 q 126 625 115 625 q 133 618 133 625 q 114 599 133 611 m 449 475 q 481 328 485 411 q 458 226 479 276 q 403 135 438 175 q 322 69 368 94 q 222 40 276 43 q 188 41 197 40 q 164 47 178 42 q 86 99 119 63 q 38 179 53 136 q 22 241 26 211 q 18 314 17 271 q 47 447 21 381 q 129 553 72 513 q 160 571 142 563 q 214 593 179 579 q 231 596 219 594 q 256 597 242 597 q 367 567 318 597 q 449 475 417 536 m 331 344 q 326 383 331 368 q 308 415 321 397 q 284 440 296 435 q 244 447 272 446 l 215 449 l 206 438 q 180 391 189 418 q 168 324 171 364 q 174 249 165 282 q 197 200 182 215 q 208 192 204 193 q 221 190 211 190 q 233 194 226 192 q 246 199 240 196 q 307 260 283 218 q 331 344 331 303 z "},"n":{"ha":681,"x_min":0,"x_max":636,"o":"m 340 692 q 331 696 333 690 q 335 707 329 701 q 367 718 342 714 q 422 722 393 722 q 444 722 433 722 q 464 719 454 721 q 536 696 501 713 q 571 667 571 679 q 561 657 571 657 q 547 664 557 657 q 487 693 526 682 q 410 704 447 704 q 386 703 397 704 q 365 699 375 701 q 351 694 358 696 q 340 692 343 693 m 511 617 q 609 492 582 581 q 615 276 636 403 q 605 231 611 257 q 592 178 599 206 q 577 128 585 151 q 563 89 569 104 q 531 53 551 65 q 486 42 511 42 q 439 63 458 43 q 425 151 404 99 q 458 260 444 203 q 471 372 471 317 q 465 445 472 419 q 443 482 458 471 q 432 488 438 488 q 410 489 426 489 q 385 485 394 488 q 361 475 376 483 q 249 385 297 447 q 171 264 200 324 q 165 249 167 256 q 161 236 163 243 q 159 219 160 229 q 157 192 158 210 q 155 148 156 171 q 154 114 154 125 q 150 81 153 92 q 138 56 147 71 q 111 37 129 44 q 76 29 93 29 q 64 31 68 29 q 28 50 44 36 q 7 83 13 64 q 1 136 1 100 q 4 200 0 172 q 8 237 7 215 q 10 274 10 258 q 10 315 10 290 q 13 360 11 340 q 15 412 14 379 q 18 472 17 444 q 22 524 21 499 q 25 556 24 549 q 89 622 36 618 q 144 599 131 622 q 158 539 158 575 l 158 513 l 181 532 q 288 609 229 578 q 414 640 346 640 q 467 635 447 640 q 511 617 486 631 z "},"m":{"ha":876,"x_min":0,"x_max":821,"o":"m 306 631 q 280 632 286 631 q 271 636 274 633 q 296 649 263 649 q 378 638 340 649 q 449 596 415 628 q 468 577 464 583 q 469 565 472 571 q 463 561 468 561 q 433 581 456 561 q 306 631 383 629 m 785 461 q 813 382 804 425 q 821 274 821 339 q 819 224 821 253 q 815 169 818 196 q 810 119 813 142 q 804 89 807 97 q 783 59 797 72 q 751 40 768 46 q 733 38 738 38 q 689 53 708 38 q 663 93 669 68 q 660 115 660 104 q 663 160 660 125 q 647 399 682 363 q 633 404 642 404 q 597 385 618 404 q 553 335 575 367 q 518 267 533 303 q 488 175 503 231 q 458 128 479 146 q 411 111 436 111 q 375 121 390 111 q 351 139 358 129 q 342 153 346 146 q 337 172 339 161 q 333 201 335 183 q 331 249 332 219 q 329 283 331 256 q 325 341 328 311 q 317 395 322 371 q 304 419 313 419 q 296 417 304 419 q 257 391 279 410 q 215 349 235 372 q 181 303 194 326 q 167 261 167 279 q 169 238 167 256 q 173 201 171 221 q 178 162 175 181 q 183 132 182 143 q 168 43 196 71 q 115 21 146 21 q 76 33 94 21 q 47 63 58 44 q 31 130 39 79 q 15 246 22 181 q 4 381 8 311 q 1 503 0 450 q 4 554 3 542 q 10 576 6 567 q 35 606 18 596 q 71 617 51 617 q 103 608 88 617 q 129 581 119 599 q 135 563 133 571 q 138 533 136 554 q 138 509 138 519 q 140 496 139 499 q 156 504 140 492 q 307 569 233 569 q 444 482 403 569 l 456 458 l 482 485 q 551 536 514 517 q 635 556 589 556 q 722 531 681 556 q 785 461 763 506 z "},"l":{"ha":258,"x_min":26,"x_max":189,"o":"m 165 -22 q 172 -21 168 -21 q 181 -29 181 -21 q 156 -51 181 -42 q 103 -61 131 -61 q 83 -60 89 -61 q 53 -49 69 -57 q 32 -33 36 -40 q 32 -21 26 -25 q 38 -18 35 -18 q 49 -24 39 -18 q 107 -42 72 -42 q 165 -22 138 -42 m 174 765 q 183 751 181 758 q 188 726 186 744 q 188 673 189 708 q 186 575 188 638 q 184 501 185 543 q 183 413 183 458 q 182 324 182 368 q 182 242 182 279 q 181 144 182 181 q 180 89 181 108 q 178 62 179 69 q 176 50 178 54 q 149 17 167 29 q 108 6 131 6 q 60 24 79 6 q 33 69 40 42 q 31 103 32 76 q 30 170 31 131 q 29 256 29 210 q 30 347 29 303 q 31 426 31 390 q 33 482 32 463 q 36 519 35 503 q 40 556 38 535 q 44 606 42 576 q 53 682 47 635 q 62 744 57 729 q 79 772 67 760 q 124 789 99 789 q 174 765 154 789 z "},"k":{"ha":450,"x_min":14,"x_max":415,"o":"m 40 753 q 36 760 36 753 q 63 781 36 771 q 122 792 90 792 q 146 790 138 792 q 165 783 154 789 q 183 760 192 769 q 178 757 182 757 q 157 764 169 757 q 144 769 151 767 q 131 774 136 772 q 58 758 93 774 q 40 753 43 750 m 400 500 q 367 465 394 490 q 286 390 340 439 l 229 342 l 236 329 q 264 290 244 314 q 324 221 283 265 q 364 175 347 196 q 383 147 381 154 q 390 99 394 124 q 367 60 386 75 q 318 40 344 40 q 281 51 300 40 q 257 72 274 54 q 218 114 240 89 l 168 169 l 167 103 q 165 53 165 75 q 163 25 164 31 q 135 -20 156 -3 q 88 -37 114 -37 q 22 4 47 -37 q 18 15 19 8 q 16 40 17 21 q 15 100 15 60 q 15 214 15 140 q 15 374 14 308 q 17 465 15 440 q 22 522 18 489 q 28 585 25 554 q 35 640 32 617 q 40 671 39 664 q 106 729 56 729 q 131 725 121 729 q 153 710 142 721 q 169 681 167 697 q 169 625 172 665 q 167 583 168 607 q 167 536 167 558 q 167 498 167 514 q 168 482 167 482 q 179 489 169 482 q 203 507 189 496 q 235 531 218 518 q 267 556 253 544 q 313 589 301 583 q 340 596 325 596 q 361 593 354 596 q 403 556 390 585 q 400 500 415 528 z "},"j":{"ha":492,"x_min":-47,"x_max":429,"o":"m 389 69 q 321 -53 365 -1 q 224 -125 276 -106 q 196 -131 213 -129 q 163 -132 179 -132 q 33 -81 88 -132 q -37 40 -21 -31 q -29 109 -47 81 q 25 138 -11 138 q 92 76 78 138 q 129 26 101 42 q 161 17 144 17 q 191 28 176 17 q 217 57 206 40 q 236 92 228 74 q 249 124 244 111 q 259 161 256 144 q 265 199 263 178 q 267 249 267 219 q 268 326 268 279 l 268 442 l 278 457 q 335 492 297 489 q 340 492 338 492 q 346 493 343 493 q 389 475 367 493 q 405 454 399 465 q 415 424 411 443 q 419 378 418 406 q 421 306 421 350 q 413 174 419 225 q 389 69 407 122 m 240 583 q 216 618 224 597 q 210 660 208 639 q 223 699 213 681 q 251 726 233 717 q 274 733 260 731 q 303 736 289 736 q 360 715 338 736 q 383 657 382 693 q 363 590 388 619 q 296 561 333 561 q 240 583 267 561 m 414 -15 q 415 -46 429 -18 q 367 -108 401 -74 q 315 -151 347 -128 q 254 -174 282 -174 q 246 -169 249 -174 q 248 -160 243 -164 q 274 -149 253 -157 q 342 -104 311 -132 q 393 -40 374 -76 q 406 -19 401 -24 q 414 -15 410 -15 z "},"i":{"ha":256,"x_min":13,"x_max":214,"o":"m 213 -86 q 174 -122 214 -101 q 151 -131 160 -129 q 124 -132 143 -132 q 99 -132 111 -132 q 81 -131 86 -132 q 33 -112 54 -124 q 15 -92 13 -100 q 22 -86 17 -86 q 42 -94 29 -86 q 115 -112 68 -112 q 142 -111 133 -112 q 163 -104 150 -110 q 178 -95 169 -100 q 190 -86 186 -90 q 206 -78 201 -78 q 213 -86 213 -78 m 32 642 q 33 700 24 671 q 65 743 42 729 q 104 754 82 754 q 159 733 135 754 q 188 681 183 713 q 178 631 190 656 q 143 596 165 607 q 107 585 124 585 q 61 601 83 585 q 32 642 39 618 m 71 -54 q 49 -37 60 -49 q 33 -15 39 -26 q 25 44 28 -1 q 22 149 22 90 q 23 272 21 208 q 31 386 25 336 q 35 423 32 403 q 47 460 39 443 q 68 490 54 478 q 104 501 82 501 q 160 471 140 501 l 168 458 l 168 350 q 169 300 168 328 q 170 243 169 272 q 172 187 171 214 q 174 138 172 160 q 176 63 175 90 q 176 20 176 36 q 176 -3 176 4 q 172 -15 175 -10 q 143 -49 163 -36 q 101 -61 124 -61 q 71 -54 83 -61 z "},"h":{"ha":590,"x_min":28,"x_max":550,"o":"m 522 306 q 524 262 524 289 q 522 203 524 235 q 515 138 519 171 q 507 74 511 104 q 481 21 501 40 q 433 1 461 1 q 418 3 424 1 q 374 28 390 7 q 358 81 358 49 q 360 110 358 89 q 364 153 361 131 q 371 308 376 267 q 367 331 369 317 q 359 358 364 344 q 347 381 354 371 q 328 390 339 390 q 297 374 315 388 q 260 343 279 361 q 222 303 240 325 q 192 261 204 282 l 182 243 l 179 72 l 169 56 q 106 15 146 15 q 56 35 76 15 q 38 55 44 44 q 30 88 32 65 q 28 148 28 110 q 31 253 29 186 q 35 383 33 331 q 41 476 38 435 q 49 553 44 517 q 61 635 54 590 q 69 690 65 663 q 76 731 74 718 q 86 769 79 756 q 104 793 93 782 q 146 808 124 808 q 178 799 163 808 q 204 771 194 789 q 211 754 210 761 q 210 721 213 747 q 207 682 208 706 q 203 639 206 658 q 200 601 201 625 q 197 554 199 578 q 194 511 196 531 q 193 488 193 492 q 213 499 193 486 q 336 542 278 542 q 416 520 382 542 q 472 464 450 499 q 507 388 494 429 q 522 306 519 346 m 513 522 q 539 482 528 503 q 547 456 550 461 q 536 450 544 450 q 531 453 533 450 q 518 476 531 457 q 438 560 485 538 q 424 572 424 565 q 433 578 424 578 q 472 562 449 578 q 513 522 494 546 z "},"g":{"ha":554,"x_min":-8,"x_max":485,"o":"m 221 -247 l 232 -247 q 250 -260 256 -247 q 236 -267 249 -265 q 206 -269 224 -269 q 142 -262 174 -269 q 82 -243 111 -254 q 53 -228 69 -237 q 25 -209 38 -219 q 4 -190 13 -199 q -3 -176 -4 -181 q 6 -171 0 -171 q 17 -178 10 -171 q 28 -188 19 -181 q 49 -203 38 -196 q 122 -235 81 -222 q 201 -249 164 -249 q 212 -248 207 -249 q 221 -247 217 -247 m 465 528 q 474 477 469 513 q 481 399 478 442 q 484 313 483 356 q 483 243 485 271 q 469 94 481 172 q 428 -49 458 15 q 343 -156 397 -114 q 199 -199 289 -199 q 88 -171 136 -199 q 11 -85 39 -143 q -6 -35 -4 -56 q 0 4 -8 -15 q 68 47 21 47 q 140 -7 117 47 q 206 -50 160 -50 q 306 53 276 -50 q 312 76 308 63 q 318 104 315 90 q 322 129 321 118 q 324 144 324 140 q 322 150 324 150 q 307 142 322 150 q 256 122 282 126 q 200 117 229 117 q 118 134 154 117 q 57 181 82 151 q 19 251 32 211 q 4 333 6 290 q 26 464 0 401 q 119 582 58 540 q 246 624 179 624 q 368 582 314 624 q 383 574 379 574 q 393 575 389 574 q 438 564 417 575 q 465 528 458 553 m 326 421 q 329 435 329 432 q 325 440 329 438 q 316 447 322 442 q 303 458 310 451 q 254 483 276 483 q 225 475 240 483 q 168 413 190 458 q 162 397 164 403 q 158 385 160 392 q 157 371 157 379 q 157 347 157 363 q 158 321 157 335 q 163 294 158 307 q 176 274 167 282 q 203 265 186 265 q 247 283 226 265 q 283 324 267 300 q 310 376 299 349 q 326 421 322 403 z "},"f":{"ha":593,"x_min":-42,"x_max":554,"o":"m 135 529 q 121 513 126 513 q 115 518 118 513 q 119 540 111 524 q 140 578 126 557 q 172 622 154 600 q 208 660 190 643 q 257 692 229 679 q 299 706 285 706 q 306 704 304 706 q 292 683 322 693 q 198 622 242 668 q 135 529 154 576 m 549 506 q 544 454 554 478 q 511 419 533 431 q 482 413 494 413 q 438 432 460 413 q 417 475 417 451 q 403 497 417 489 q 371 506 390 506 q 356 503 360 506 q 342 490 351 501 q 315 451 328 476 q 294 397 301 425 q 287 369 290 386 q 281 335 283 353 q 276 304 278 318 q 274 283 274 290 l 274 272 l 310 274 q 342 276 325 275 q 368 276 358 276 q 443 235 422 276 q 444 172 458 203 q 396 131 429 140 q 369 127 389 129 q 325 124 349 125 q 285 120 301 121 q 268 118 268 119 q 269 85 267 117 q 275 7 271 53 q 285 -89 279 -39 q 297 -176 292 -139 q 301 -208 300 -196 q 303 -227 303 -219 q 302 -240 303 -235 q 300 -250 301 -244 q 274 -289 293 -275 q 231 -303 254 -303 q 179 -285 199 -303 q 154 -236 160 -267 q 144 -181 150 -221 q 134 -96 139 -142 q 125 -6 129 -50 q 119 64 121 39 q 116 104 117 96 q 108 113 115 113 q 105 112 107 113 q 100 111 103 111 q 81 109 93 111 q 58 104 69 107 q 38 100 47 101 q 21 99 29 99 q -24 117 -6 99 q -42 163 -42 136 q -28 201 -42 186 q 3 226 -15 217 q 44 241 22 236 q 85 249 67 246 q 97 252 92 251 q 107 254 103 253 q 117 256 113 254 q 118 268 118 261 q 122 297 121 281 q 142 409 128 347 q 183 525 156 471 q 254 616 211 579 q 361 653 297 653 q 484 612 432 653 q 549 506 536 571 z "},"e":{"ha":539,"x_min":-1,"x_max":510,"o":"m 382 -3 q 372 -26 393 -11 q 289 -51 342 -50 q 265 -51 276 -51 q 250 -50 253 -51 q 239 -47 247 -49 q 219 -42 231 -44 q 203 -37 215 -40 q 180 -30 192 -35 q 159 -20 168 -25 q 150 -10 150 -15 q 156 -3 150 -3 q 190 -12 163 -3 q 283 -32 240 -32 q 360 -10 325 -32 q 378 0 374 0 q 382 -3 379 0 m 174 244 q 161 247 167 247 q 160 244 160 247 q 201 189 171 214 q 263 160 231 164 q 279 160 274 160 q 293 167 285 161 q 315 188 307 174 q 379 222 342 222 q 429 201 408 222 q 453 142 457 175 q 418 75 450 110 q 257 8 353 8 q 160 33 206 8 q 79 97 114 57 q 24 185 44 136 q 1 283 3 233 q 7 367 -1 328 q 36 451 15 407 q 89 534 57 496 q 160 599 121 572 q 241 642 199 626 q 324 657 283 657 q 342 656 333 657 q 358 654 350 656 q 472 580 435 640 q 490 443 510 519 q 417 322 474 376 q 292 250 361 268 q 254 244 276 246 q 213 242 232 242 q 190 242 200 242 q 174 244 181 242 m 165 374 l 199 375 q 280 396 247 378 q 336 460 313 414 q 342 501 353 493 q 325 506 338 506 q 308 504 317 506 q 290 500 299 503 q 221 456 254 488 q 172 386 188 424 l 165 374 z "},"d":{"ha":618,"x_min":-10,"x_max":564,"o":"m 543 878 q 561 847 558 863 q 558 778 564 831 q 549 631 553 711 q 542 469 544 550 q 540 310 540 388 q 542 175 540 233 q 544 107 543 132 q 543 67 544 82 q 538 45 542 53 q 529 29 535 38 q 467 1 506 1 q 442 6 453 1 q 413 28 426 13 q 397 63 400 44 l 394 72 l 382 61 q 313 26 356 40 q 231 13 271 13 q 208 14 215 13 q 99 64 144 22 q 31 168 53 106 q 14 306 10 231 q 53 458 18 382 q 160 594 92 542 q 299 646 228 646 q 341 641 318 646 q 383 628 364 636 l 397 621 l 400 631 q 405 679 400 644 q 416 751 410 714 q 428 821 422 789 q 439 863 435 853 q 497 897 458 897 q 543 878 524 897 m 388 388 q 382 435 390 410 q 361 472 374 460 q 307 497 339 497 q 239 463 275 497 q 183 381 203 429 q 167 315 171 349 q 166 251 163 281 q 181 200 169 222 q 208 169 192 178 q 233 164 219 164 q 300 192 275 164 q 330 233 315 208 q 357 285 344 258 q 378 339 369 313 q 388 388 386 365 m 124 631 q 68 575 96 608 q 21 503 40 542 q -1 475 7 475 q -6 479 -4 475 q 13 529 -10 490 q 44 577 26 554 q 81 619 63 600 q 114 649 99 638 q 138 660 129 660 q 144 653 144 660 q 124 631 146 647 z "},"c":{"ha":554,"x_min":4,"x_max":499,"o":"m 44 561 q 21 538 28 538 q 17 542 19 538 q 33 576 14 551 q 83 633 51 601 q 131 672 107 657 q 169 686 156 686 q 181 678 179 686 q 169 667 181 671 q 99 622 133 651 q 44 561 65 593 m 499 249 q 497 222 499 229 q 482 190 494 215 q 437 117 461 151 q 382 57 413 83 q 313 15 351 31 q 229 0 275 0 q 211 1 217 0 q 43 126 101 18 q 8 267 11 186 q 32 429 4 347 q 69 513 44 471 q 128 588 94 554 q 202 644 161 622 q 290 665 243 665 q 394 627 349 665 q 460 536 440 589 q 451 436 481 469 q 404 414 432 414 q 363 429 382 414 q 345 452 354 436 q 336 476 336 468 q 324 504 336 490 q 297 518 313 518 q 268 508 283 518 q 201 439 229 486 q 163 333 172 392 q 160 306 161 322 q 160 272 160 289 q 163 239 161 254 q 168 215 165 224 q 195 172 178 189 q 232 151 213 154 q 272 162 254 151 q 303 188 289 172 q 328 223 317 204 q 347 258 339 242 q 371 294 363 285 q 394 311 379 304 q 412 319 406 318 q 432 319 418 319 q 479 297 463 317 q 499 249 496 278 z "},"b":{"ha":585,"x_min":-22,"x_max":528,"o":"m 521 399 q 526 365 525 385 q 528 323 528 344 q 526 281 528 301 q 522 246 525 261 q 489 147 511 193 q 433 68 467 101 q 356 16 400 35 q 254 -3 311 -3 q 216 -1 235 -3 q 182 3 197 0 q 160 8 169 6 q 150 10 151 10 q 132 7 143 10 q 108 3 122 3 q 46 38 68 3 l 36 53 l 33 158 q 31 259 32 215 q 26 344 29 303 q 20 428 24 386 q 10 524 17 471 q 1 605 6 556 q -7 690 -4 654 q -14 759 -11 726 q -18 801 -17 792 q -17 841 -22 825 q 1 871 -12 857 q 47 889 21 889 q 100 860 79 889 q 107 845 104 853 q 114 822 110 838 q 123 776 118 806 q 136 696 128 746 q 150 614 144 643 q 158 585 156 585 q 178 592 164 585 q 219 606 197 601 q 267 613 240 610 q 326 608 301 613 q 382 588 351 604 q 521 399 488 538 m 368 249 q 376 309 375 269 q 372 369 378 349 q 275 465 351 457 q 224 458 251 465 q 179 432 196 450 l 172 425 l 176 378 q 181 319 179 358 q 182 244 182 281 q 185 183 183 208 q 188 156 186 157 q 196 154 189 156 q 213 150 203 153 q 231 147 222 147 q 249 147 240 147 q 326 174 300 147 q 368 249 351 200 m 353 654 q 333 671 324 661 q 344 674 336 674 q 407 653 365 674 q 447 629 428 643 q 480 601 467 615 q 500 576 493 588 q 504 556 507 564 q 497 550 503 550 q 483 563 488 550 q 426 620 464 597 q 353 654 389 643 z "},"a":{"ha":578,"x_min":0,"x_max":522,"o":"m 517 449 q 520 417 519 436 q 522 376 521 397 q 522 335 522 356 q 518 300 521 315 q 506 219 514 265 q 492 129 499 172 q 479 55 485 86 q 472 19 474 24 q 446 -17 465 -3 q 403 -31 426 -31 q 363 -19 381 -31 q 336 14 344 -8 l 331 25 l 308 17 q 231 4 271 4 q 144 20 186 4 q 71 64 103 36 q 19 131 39 92 q 0 217 0 169 q 24 319 0 271 q 88 403 49 367 q 178 461 128 440 q 281 482 228 482 q 336 475 306 482 q 347 474 342 474 q 343 492 356 474 q 296 528 325 515 q 233 542 267 542 q 161 526 199 542 q 118 515 136 515 q 68 540 88 515 q 58 599 49 568 q 103 649 67 629 q 175 674 135 665 q 253 683 215 683 q 431 619 365 683 q 517 449 497 556 m 365 303 l 349 318 q 293 340 324 340 q 247 331 271 340 q 203 304 224 321 q 168 267 182 288 q 151 224 154 246 q 156 196 150 211 q 232 157 176 157 q 281 169 260 157 q 321 200 301 181 q 351 235 344 222 q 363 274 358 247 l 365 303 m 206 -29 l 251 -29 l 251 -37 q 242 -47 251 -44 q 228 -49 236 -49 q 211 -49 221 -49 q 134 -40 168 -49 q 64 -3 100 -31 q 32 27 49 8 q 17 50 15 46 q 22 56 18 56 q 50 36 31 56 q 121 -15 85 0 q 206 -29 157 -29 z "},"*":{"ha":442,"x_min":-44,"x_max":392,"o":"m 271 825 q 369 763 347 783 q 381 719 392 742 q 357 704 372 704 q 335 711 346 704 q 319 720 329 714 q 297 733 308 726 q 272 749 286 740 q 247 763 257 757 l 224 776 l 224 758 q 224 735 224 750 q 226 704 225 719 q 228 672 229 681 q 225 656 228 664 q 181 624 213 625 l 171 624 q 149 632 158 624 q 124 665 131 643 q 114 733 117 688 l 113 749 l 92 724 q 65 696 72 701 q 44 690 57 690 q 15 715 19 690 q 23 743 13 726 q 64 793 33 760 q 90 823 79 811 q 101 836 101 835 q 83 845 99 839 q 49 859 68 851 q 13 872 31 867 q -10 879 -4 878 q -32 889 -25 882 q -39 917 -44 900 q -17 939 -33 935 l -11 939 q 74 915 11 939 q 103 904 92 908 q 117 901 115 900 q 118 914 118 907 q 122 942 119 924 q 133 1008 126 976 q 144 1054 139 1040 q 165 1079 151 1071 q 193 1088 179 1088 q 236 1060 222 1088 q 241 1042 242 1049 q 233 1004 240 1035 q 230 989 231 999 q 228 971 229 979 l 225 950 l 250 967 q 304 996 289 996 q 331 978 324 996 q 326 949 339 960 q 301 931 319 942 q 250 888 276 911 q 224 857 224 864 q 232 847 224 853 q 271 825 240 840 z "},"+":{"ha":789,"x_min":78,"x_max":669,"o":"m 104 364 q 148 385 119 378 q 240 399 176 392 l 292 404 l 294 424 q 309 513 300 469 q 325 569 318 556 q 353 599 336 589 q 388 610 369 610 q 422 601 406 610 q 447 572 438 592 q 449 517 456 553 q 445 496 447 510 q 442 467 443 482 q 439 438 440 451 q 438 417 438 424 l 438 410 l 510 407 q 567 404 544 406 q 603 399 589 403 q 627 390 618 396 q 646 372 636 383 q 663 314 669 346 q 622 264 656 282 q 609 259 615 261 q 579 257 603 257 q 553 258 568 257 q 519 258 539 258 l 428 258 l 428 250 q 427 221 428 247 q 425 160 426 194 l 424 79 l 414 61 q 357 22 394 24 q 325 26 336 22 q 275 104 283 46 q 274 131 274 113 q 274 169 274 149 q 275 211 274 190 q 278 244 276 232 l 279 258 l 249 258 q 220 258 236 258 q 194 256 204 257 q 161 251 172 253 q 143 250 150 250 q 124 254 135 250 q 85 303 92 267 q 104 364 78 339 z "},",":{"ha":269,"x_min":-14,"x_max":163,"o":"m 143 39 q 157 -26 163 15 q 124 -101 151 -67 q 51 -157 81 -157 q 35 -150 42 -157 q 27 -125 24 -139 q 46 -103 31 -111 q 51 -89 67 -92 q -7 -40 11 -79 q -13 -7 -12 -28 q -8 29 -14 14 q 13 60 -1 46 q 43 79 26 74 q 74 83 60 83 q 143 39 111 83 z "},"-":{"ha":699,"x_min":65,"x_max":589,"o":"m 586 299 q 544 226 589 251 q 535 224 540 225 q 511 222 529 222 q 456 220 493 221 q 353 219 419 219 q 256 219 292 219 q 200 219 219 219 q 172 217 181 218 q 160 214 164 217 q 138 210 147 210 q 107 218 124 210 q 70 268 75 233 q 93 328 65 303 q 126 346 106 339 q 183 357 147 353 q 240 362 206 360 q 312 366 274 364 q 388 369 350 368 q 457 371 426 371 q 499 369 478 371 q 540 361 521 368 q 572 340 558 354 q 586 299 585 325 z "},".":{"ha":294,"x_min":-1,"x_max":171,"o":"m 79 85 q 131 69 110 85 q 162 29 153 53 q 167 -22 171 6 q 140 -69 163 -49 q 82 -94 115 -94 q 26 -69 47 -94 q 1 -11 4 -43 q 21 58 -1 31 q 79 85 43 85 z "},"/":{"ha":568,"x_min":57,"x_max":513,"o":"m 513 735 q 510 715 513 724 q 499 690 507 707 q 479 647 493 679 q 451 581 465 615 q 435 540 444 564 q 415 492 425 517 q 394 442 404 467 q 374 397 383 418 q 321 277 344 332 q 278 174 297 222 q 242 82 258 126 q 211 -7 226 38 q 198 -39 204 -24 q 189 -58 192 -54 q 129 -87 167 -87 q 106 -83 117 -87 q 82 -68 93 -79 q 64 -46 71 -57 q 57 -10 57 -29 q 67 39 57 10 q 82 83 72 56 q 103 143 92 111 q 127 206 115 175 q 147 257 139 236 q 201 383 167 306 q 272 537 236 460 q 339 676 308 614 q 381 756 369 738 q 447 800 410 800 q 494 781 475 800 q 513 735 513 763 z "},":":{"ha":467,"x_min":111,"x_max":286,"o":"m 286 69 q 262 4 286 31 q 200 -25 238 -22 q 169 -22 181 -25 q 126 8 142 -14 q 111 58 111 31 q 141 127 113 101 q 211 153 169 153 q 265 127 243 153 q 286 69 286 101 m 189 357 q 156 375 172 361 q 133 406 140 389 q 130 468 121 436 q 165 515 139 500 q 197 524 181 524 q 257 498 229 524 q 285 436 285 472 q 244 365 285 389 q 203 356 222 356 q 189 357 193 356 z "},";":{"ha":388,"x_min":56,"x_max":249,"o":"m 207 111 q 222 79 217 100 q 228 36 228 58 q 222 1 228 24 q 205 -42 215 -21 q 181 -78 194 -62 q 151 -94 167 -94 q 133 -86 144 -94 q 133 -44 118 -69 l 143 -32 l 128 -29 q 84 -10 103 -25 q 58 28 65 6 q 57 60 56 42 q 65 92 58 79 q 142 143 92 143 q 178 135 160 143 q 207 111 197 126 m 244 456 q 249 423 249 440 q 244 394 249 406 q 212 352 235 367 q 161 338 189 338 q 115 351 136 338 q 85 388 94 364 q 83 434 78 407 q 103 476 88 461 q 135 499 114 488 q 169 511 156 510 q 244 456 228 511 z "},"<":{"ha":593,"x_min":85,"x_max":426,"o":"m 310 279 q 392 226 371 247 q 414 174 414 204 q 392 121 414 142 q 342 100 369 100 q 317 104 329 100 q 301 112 311 107 q 279 124 290 117 q 234 149 251 140 q 189 167 217 157 q 124 197 146 182 q 92 232 103 211 q 85 271 85 247 q 93 311 85 294 q 119 347 104 331 q 175 397 133 363 q 258 464 226 439 q 308 502 289 489 q 338 519 326 515 q 358 524 349 524 q 408 506 389 524 q 426 460 426 488 q 394 401 426 428 q 367 377 386 394 q 328 340 347 360 l 279 294 l 310 279 z "},"=":{"ha":740,"x_min":65,"x_max":601,"o":"m 161 322 q 123 353 136 329 q 117 403 110 376 q 133 428 121 415 q 157 447 144 440 q 228 464 181 458 q 328 472 275 469 q 430 474 381 474 q 506 475 479 475 q 546 474 538 475 q 561 469 554 472 q 601 403 601 446 q 576 347 601 368 q 560 337 568 340 q 535 331 553 333 q 487 328 518 329 q 401 328 456 328 q 298 327 346 328 q 238 325 250 326 q 210 322 224 324 q 189 321 196 321 l 181 321 q 161 322 165 321 m 557 235 q 589 184 585 217 q 572 128 593 151 q 558 113 564 118 q 535 106 551 108 q 489 103 519 104 q 400 103 458 103 q 283 100 325 101 q 214 96 240 99 q 163 91 182 93 q 133 89 144 89 q 119 90 124 89 q 110 94 115 92 q 72 139 79 108 q 86 194 65 169 q 154 226 104 214 q 263 244 204 238 q 376 251 321 250 q 461 253 432 253 q 524 249 506 253 q 557 235 542 246 z "},">":{"ha":519,"x_min":44,"x_max":410,"o":"m 349 390 q 394 351 379 375 q 407 300 410 328 q 401 278 406 288 q 385 255 397 269 q 350 217 374 240 q 285 157 326 194 q 244 121 260 135 q 219 101 229 107 q 201 92 208 94 q 182 90 193 90 l 171 90 q 131 108 149 90 q 108 146 114 126 q 115 193 103 172 q 167 253 126 214 q 196 281 183 269 q 208 294 208 293 q 192 307 208 297 q 151 335 171 319 q 113 365 131 350 q 83 395 96 381 q 65 421 71 410 q 72 499 44 464 q 121 522 92 522 q 176 493 156 522 q 217 458 188 478 q 286 421 246 439 q 322 403 304 413 q 349 390 340 394 z "},"?":{"ha":631,"x_min":24,"x_max":600,"o":"m 274 928 q 260 924 265 924 q 250 928 253 924 q 270 947 247 938 q 335 963 293 956 q 356 965 346 965 q 378 965 367 965 q 444 958 415 965 q 474 939 474 950 q 465 931 474 931 q 447 935 458 931 q 376 946 418 946 q 323 941 356 946 q 274 928 290 936 m 583 746 q 565 611 600 681 q 540 570 554 590 q 501 521 526 550 q 440 447 465 479 q 399 384 415 414 q 371 326 382 354 q 353 264 360 297 q 342 229 349 242 q 325 206 336 217 q 278 189 307 189 q 233 203 254 189 q 207 240 213 217 q 205 288 200 260 q 226 367 210 317 q 281 481 246 425 q 379 611 317 536 q 424 668 411 649 q 436 703 436 688 q 434 717 436 713 q 425 729 432 722 q 401 746 415 742 q 381 749 388 749 q 324 737 356 749 q 265 706 293 725 q 213 665 236 688 q 179 618 190 642 q 167 583 168 594 q 172 563 165 571 q 190 517 190 540 q 171 469 190 486 q 126 451 151 451 q 68 478 93 451 q 28 566 33 514 q 50 681 24 618 q 105 765 69 725 q 185 834 140 804 q 280 881 229 864 q 381 899 331 899 q 508 858 451 899 q 583 746 564 817 m 300 132 q 325 111 314 125 q 340 81 336 97 q 342 49 343 68 q 335 19 340 31 q 304 -14 324 -1 q 263 -26 285 -26 q 242 -22 253 -26 q 199 15 214 -11 q 190 69 185 40 q 217 122 197 103 q 265 140 238 140 q 300 132 282 140 z "},"[":{"ha":519,"x_min":83,"x_max":438,"o":"m 411 35 q 433 1 428 21 q 433 -36 438 -18 q 414 -69 428 -54 q 378 -92 400 -85 q 332 -96 368 -94 q 261 -97 296 -97 q 202 -94 232 -97 q 149 -78 172 -90 q 108 -45 125 -67 q 86 13 90 -24 q 84 63 85 24 q 84 160 83 103 q 87 288 85 217 q 90 431 89 358 q 98 604 94 532 q 106 728 101 676 q 118 815 111 781 q 133 876 125 850 q 162 931 144 911 q 201 962 179 951 q 251 975 224 972 q 313 978 279 978 q 349 976 340 976 q 372 968 358 975 q 410 914 408 949 q 394 864 411 881 q 369 847 381 850 q 324 842 358 843 q 292 841 306 842 q 276 839 279 840 q 268 808 269 835 q 258 726 263 774 q 251 639 254 678 q 248 561 250 611 q 244 451 246 511 q 240 328 242 392 q 236 211 238 265 q 235 119 235 157 q 235 71 235 81 l 236 53 l 307 54 q 353 54 336 54 q 380 52 369 54 q 397 46 390 50 q 411 35 403 42 z "},"\\":{"ha":542,"x_min":0,"x_max":432,"o":"m 429 54 q 427 27 432 43 q 415 0 422 11 q 354 -29 393 -29 q 332 -25 343 -29 q 306 -9 319 -22 q 286 18 293 4 q 272 53 282 26 q 247 118 261 81 q 216 198 232 156 q 186 279 200 240 q 155 363 174 314 q 122 447 136 411 q 91 526 107 483 q 65 592 75 568 q 44 649 57 617 q 22 700 31 681 q 4 742 8 731 q 0 765 0 754 q 20 813 0 796 q 65 831 40 831 q 115 807 96 831 q 156 742 133 788 q 206 637 179 697 q 260 508 232 576 q 313 373 288 439 q 358 249 338 307 q 393 154 379 192 q 418 89 408 118 q 429 54 428 60 z "},"]":{"ha":519,"x_min":22,"x_max":381,"o":"m 372 429 q 376 287 375 357 q 379 159 378 217 q 380 62 381 101 q 378 11 379 22 q 351 -53 372 -31 q 300 -85 329 -75 q 237 -97 271 -96 q 169 -99 203 -99 q 144 -99 157 -99 q 121 -97 132 -99 q 66 -84 85 -94 q 36 -53 47 -74 q 32 4 22 -24 q 71 47 42 32 q 84 52 78 50 q 110 54 90 54 q 130 53 118 54 q 157 53 142 53 l 228 53 l 228 71 q 228 119 229 81 q 227 211 228 157 q 224 328 226 265 q 220 451 222 392 q 216 561 218 511 q 213 639 214 611 q 205 724 210 676 q 196 807 200 772 q 188 838 192 836 q 171 840 185 839 q 140 842 157 842 q 94 847 106 843 q 69 863 83 850 q 54 913 53 882 q 67 948 56 935 q 94 967 78 961 q 129 976 110 974 q 165 978 149 978 q 276 955 239 978 q 331 875 313 932 q 345 814 339 849 q 356 728 351 779 q 365 604 361 676 q 372 429 368 532 z "},"^":{"ha":489,"x_min":28,"x_max":433,"o":"m 421 878 q 431 835 429 847 q 433 810 433 822 q 413 761 431 781 q 365 739 394 742 q 313 756 332 739 q 285 804 294 772 q 276 833 282 815 q 267 865 271 850 l 256 900 l 233 874 q 193 820 210 844 q 161 768 176 796 q 140 733 144 739 q 122 721 136 728 q 89 714 110 714 q 69 717 75 714 q 28 781 28 735 q 44 835 28 801 q 83 906 61 869 q 128 974 106 942 q 163 1021 150 1006 q 210 1067 186 1051 q 274 1083 235 1083 q 396 954 354 1078 q 407 921 400 943 q 421 878 414 899 z "},"_":{"ha":750,"x_min":-14,"x_max":708,"o":"m 672 83 q 700 53 692 71 q 707 15 708 35 q 694 -22 706 -4 q 661 -47 682 -39 q 528 -61 640 -57 q 197 -67 415 -65 q 81 -66 126 -67 q 29 -64 35 -65 q 7 -49 19 -61 q -13 -5 -12 -29 q 4 40 -14 19 q 15 50 8 44 q 29 58 22 56 q 62 68 40 64 q 124 75 83 72 q 226 81 164 78 q 376 86 288 83 q 438 88 407 86 q 497 90 469 89 q 546 92 525 90 q 576 93 567 93 q 602 95 592 94 q 622 96 613 96 q 651 93 642 96 q 672 83 661 90 z "},"{":{"ha":481,"x_min":68,"x_max":403,"o":"m 272 603 q 259 524 265 551 q 242 467 253 497 l 229 439 l 240 415 q 258 368 251 390 q 272 314 265 346 q 277 288 275 300 q 281 260 279 276 q 285 217 283 243 q 290 151 288 192 q 299 83 293 103 q 317 50 304 64 q 331 37 322 43 q 347 26 340 31 q 392 -28 385 7 q 369 -92 399 -64 q 315 -115 346 -115 q 257 -95 283 -115 q 211 -56 231 -75 q 178 -17 190 -36 q 157 28 165 3 q 144 92 149 54 q 135 185 139 129 q 129 251 132 224 q 122 301 126 279 q 110 339 117 322 q 92 374 103 356 q 81 397 86 383 q 74 417 76 410 q 72 453 68 436 q 89 497 75 469 q 110 549 103 525 q 124 622 117 574 q 144 731 133 692 q 172 807 154 769 q 198 849 182 825 q 235 893 214 872 q 278 928 256 914 q 325 942 301 942 q 381 917 358 942 q 394 858 403 893 q 380 831 392 844 q 357 814 368 817 q 327 788 343 808 q 300 740 311 767 q 287 692 293 722 q 272 603 281 661 z "},"|":{"ha":365,"x_min":71,"x_max":268,"o":"m 267 867 q 268 828 268 861 q 266 747 268 794 q 261 646 264 700 q 256 544 258 592 q 250 465 253 517 q 244 368 247 413 q 238 256 242 321 q 229 133 233 192 q 222 30 225 74 q 218 -19 219 -14 q 192 -63 215 -44 q 143 -82 168 -82 q 137 -81 140 -82 q 131 -81 133 -81 q 76 -36 93 -72 q 72 -20 74 -29 q 71 9 71 -11 q 73 65 71 29 q 79 160 75 100 q 87 271 83 214 q 92 353 90 328 q 107 577 99 465 q 131 801 115 689 q 135 845 133 825 q 139 869 138 865 q 163 904 144 889 q 203 919 182 919 q 242 905 225 919 q 267 867 260 890 z "},"}":{"ha":425,"x_min":4,"x_max":343,"o":"m 322 499 q 340 456 336 472 q 338 419 343 439 q 330 399 335 413 q 319 376 325 386 q 302 342 310 358 q 290 303 294 325 q 281 254 285 282 q 275 188 278 226 q 269 119 272 147 q 263 69 267 90 q 254 33 260 49 q 242 0 249 17 q 217 -35 233 -17 q 181 -71 201 -54 q 140 -99 161 -87 q 100 -111 119 -110 q 68 -108 82 -111 q 41 -88 57 -104 q 22 -61 25 -72 q 64 29 4 0 q 80 40 71 33 q 94 53 89 46 q 113 86 107 67 q 121 154 118 106 q 126 220 124 194 q 130 263 128 246 q 134 291 132 279 q 139 317 136 303 q 153 371 146 349 q 171 418 160 393 l 182 442 l 169 469 q 152 527 158 500 q 139 606 146 554 q 124 694 131 664 q 111 743 118 725 q 84 790 100 769 q 54 817 68 811 q 31 833 43 819 q 17 861 19 847 q 31 920 8 896 q 86 944 53 944 q 133 931 110 944 q 176 896 156 917 q 212 851 196 875 q 238 810 228 828 q 267 733 257 772 q 288 625 278 694 q 301 551 294 576 q 322 499 307 526 z "},"~":{"ha":663,"x_min":39,"x_max":579,"o":"m 571 399 q 578 382 576 388 q 579 361 579 376 q 563 310 579 335 q 524 268 547 286 q 472 239 500 250 q 421 228 444 228 q 401 230 411 229 q 383 233 390 231 q 346 248 364 239 q 303 274 328 257 q 255 303 271 296 q 219 310 239 310 q 189 303 200 310 q 165 281 178 297 q 121 249 143 253 q 108 247 117 247 q 50 285 69 247 q 45 329 39 304 q 69 377 51 354 q 114 419 86 400 q 175 446 142 438 q 231 453 206 453 q 382 401 307 453 q 418 381 411 381 q 440 399 426 381 q 472 426 457 418 q 511 433 486 433 q 571 399 549 431 z "},"@":{"ha":936,"x_min":25,"x_max":919,"o":"m 599 979 q 566 981 571 981 q 561 989 561 982 q 565 997 561 996 q 585 997 568 997 q 683 985 631 997 q 774 943 736 972 q 786 919 796 929 q 779 915 782 915 q 760 928 774 915 q 599 979 697 974 m 904 613 q 875 433 919 521 q 814 346 851 385 q 733 286 776 307 q 692 273 707 275 q 651 271 678 271 q 627 273 636 271 q 603 282 618 275 q 582 294 593 288 q 564 308 571 301 l 547 324 l 528 304 q 415 257 476 257 q 335 285 371 257 q 294 335 308 304 q 281 403 281 367 q 293 480 281 440 q 331 557 306 519 q 408 632 358 597 q 504 678 457 667 q 544 681 521 681 q 619 626 607 676 q 626 614 622 621 q 635 601 629 607 q 653 569 650 586 q 654 507 657 551 q 654 464 653 476 q 658 440 656 451 q 667 422 664 422 q 694 440 675 422 q 726 476 713 457 q 756 561 754 515 q 717 688 760 631 q 599 768 674 744 q 565 775 585 772 q 525 778 546 778 q 355 719 425 778 q 240 575 285 661 q 208 494 218 532 q 194 417 197 457 q 201 325 192 371 q 231 240 211 279 q 279 169 250 200 q 344 121 308 139 q 397 101 372 106 q 467 97 421 97 q 521 100 497 97 q 566 109 544 103 q 610 125 588 115 q 658 149 632 135 q 724 174 700 174 q 744 169 735 174 q 777 149 764 164 q 794 117 790 135 q 794 82 799 100 q 775 49 790 64 q 750 29 767 40 q 713 7 733 18 q 668 -14 692 -4 q 624 -31 644 -24 q 543 -50 586 -43 q 460 -57 500 -57 q 308 -28 379 -57 q 179 58 236 0 q 53 289 82 156 q 69 558 25 422 q 138 701 94 633 q 239 819 181 768 q 369 899 297 869 q 525 929 442 929 q 660 906 596 929 q 774 842 724 883 q 860 742 825 800 q 904 613 894 683 m 456 450 q 478 489 467 465 q 488 514 490 513 q 483 511 488 515 q 472 500 478 507 q 449 467 461 489 q 435 431 438 446 q 435 424 433 424 q 438 425 436 424 q 456 450 444 432 z "},"`":{"ha":350,"x_min":-14,"x_max":244,"o":"m 231 997 q 235 945 244 971 q 200 906 226 919 q 164 899 183 899 q 149 900 153 899 q 138 904 143 901 q 124 914 132 907 q 101 933 115 921 q 61 968 86 946 q 22 1003 36 989 q -1 1027 7 1017 q -11 1046 -8 1038 q -14 1065 -14 1054 q -6 1096 -14 1081 q 15 1119 3 1111 q 30 1128 24 1126 q 51 1129 36 1129 l 60 1129 q 72 1128 67 1129 q 87 1121 78 1126 q 110 1104 96 1115 q 150 1072 125 1093 q 190 1042 175 1054 q 213 1023 204 1031 q 224 1010 221 1015 q 231 997 228 1004 z "},"":{"ha":700,"x_min":50,"x_max":590,"o":"m 272 463 q 266 498 265 475 q 274 533 267 521 q 299 565 285 553 q 338 578 314 578 q 377 569 357 578 q 410 544 397 560 q 425 505 424 526 q 417 464 426 483 q 391 431 408 444 q 350 417 374 418 q 272 463 297 417 m 306 176 q 347 166 329 176 q 374 138 364 156 q 386 99 385 121 q 376 56 388 76 q 340 15 363 29 q 292 0 317 0 q 225 39 249 0 q 219 99 213 63 q 249 153 226 131 q 306 176 272 176 m 565 343 q 585 310 581 329 q 585 274 590 292 q 567 242 581 256 q 533 221 554 228 q 511 218 525 218 q 499 218 506 218 q 482 219 492 218 q 444 222 471 221 q 379 222 417 222 q 280 222 335 222 q 163 218 225 221 l 138 218 q 101 221 113 218 q 63 255 75 229 q 61 306 50 281 q 78 331 67 319 q 103 346 90 342 q 127 350 107 347 q 176 356 147 353 q 242 363 206 360 q 318 369 279 367 q 415 374 367 374 q 492 371 458 374 q 542 361 526 368 q 565 343 553 356 z "},"":{"ha":653,"x_min":64,"x_max":556,"o":"m 471 463 q 488 464 476 464 q 535 446 515 464 q 556 399 556 428 q 524 342 556 367 q 489 314 510 332 q 449 278 468 296 q 417 246 431 260 q 406 231 404 232 q 417 215 407 229 q 442 183 428 201 q 483 126 475 142 q 492 90 492 111 q 475 42 492 61 q 428 21 458 24 l 419 21 q 374 37 394 21 q 315 101 353 53 l 292 132 l 238 76 q 190 29 201 40 q 168 15 178 18 q 139 11 154 11 q 111 17 122 11 q 73 59 82 31 q 79 119 64 88 q 99 147 86 132 q 144 196 113 163 l 201 253 l 172 292 q 131 342 144 328 q 103 365 118 356 q 75 397 83 378 q 72 438 67 417 q 138 486 86 486 q 179 476 160 486 q 224 443 196 469 q 283 381 253 417 q 303 357 294 365 q 314 350 313 349 q 344 376 322 358 q 392 413 367 394 q 440 446 417 431 q 471 463 463 461 z "},"":{"ha":679,"x_min":38,"x_max":582,"o":"m 436 592 q 375 554 404 590 l 358 535 l 383 531 q 460 450 460 515 q 438 400 460 422 q 388 378 415 378 q 361 382 382 378 q 338 385 350 385 q 322 386 326 386 q 310 381 313 386 q 307 360 307 376 l 307 347 l 346 346 q 392 341 379 344 q 421 324 406 338 q 445 273 444 304 q 424 219 446 242 q 398 201 411 206 q 356 197 385 197 l 322 197 l 326 186 q 354 144 336 164 q 388 119 372 124 l 392 119 q 433 144 407 119 q 466 168 453 161 q 497 175 479 175 q 556 146 533 175 q 567 81 578 117 q 518 17 557 49 q 436 -26 479 -15 q 392 -31 419 -31 q 315 -13 350 -31 q 253 32 281 4 q 205 95 225 60 q 174 168 185 131 l 167 190 l 150 189 q 108 186 133 186 q 86 188 92 186 q 71 194 81 189 q 44 233 51 208 q 49 278 38 257 q 72 303 57 294 q 118 319 86 313 l 154 328 l 154 344 q 155 360 154 351 q 156 376 156 369 l 158 392 l 138 389 q 121 388 132 388 q 56 428 75 388 q 53 467 49 446 q 71 501 57 489 q 119 524 93 517 q 172 531 146 531 q 188 533 185 531 q 204 563 192 536 q 292 681 235 631 q 429 732 350 732 q 481 725 454 732 q 530 703 507 718 q 567 668 553 689 q 582 618 582 647 q 581 597 582 603 q 574 582 579 592 q 517 554 550 554 q 493 558 504 554 q 468 578 482 564 q 446 592 454 592 l 436 592 m 165 600 q 147 581 154 581 q 143 585 146 581 q 151 613 140 593 q 181 657 163 633 q 223 703 200 681 q 268 742 246 726 q 292 753 286 753 q 299 750 293 753 q 302 741 304 746 q 293 733 300 736 q 264 714 282 729 q 227 679 246 699 q 192 639 208 660 q 165 600 175 618 z "},"":{"ha":719,"x_min":54,"x_max":642,"o":"m 589 17 q 549 -56 593 -31 q 539 -59 544 -58 q 515 -60 533 -60 q 460 -62 497 -61 q 357 -62 424 -62 q 260 -62 296 -62 q 204 -63 224 -62 q 176 -65 185 -64 q 164 -67 168 -65 q 140 -72 153 -72 q 110 -64 126 -72 q 74 -14 78 -49 q 96 46 69 21 q 129 64 108 57 q 188 75 150 71 q 244 80 210 78 q 316 84 278 82 q 392 88 354 86 q 461 89 431 89 q 503 88 482 89 q 543 79 525 86 q 574 58 561 72 q 589 17 588 43 m 618 493 q 635 433 642 465 q 594 385 628 401 q 585 381 590 382 q 571 378 581 379 q 543 378 561 378 q 492 378 525 378 l 400 379 l 400 371 q 399 340 400 367 q 397 281 399 314 l 396 199 l 386 181 q 329 143 367 144 q 272 165 292 143 q 247 224 253 188 q 246 250 246 232 q 246 290 246 268 q 247 331 246 311 q 250 364 249 351 l 251 379 l 221 379 q 192 378 208 379 q 167 375 176 378 q 133 371 144 372 q 115 369 122 369 q 96 374 107 369 q 69 394 79 381 q 57 423 60 407 q 59 455 54 439 q 76 483 64 471 q 120 506 92 499 q 213 519 149 513 l 264 524 l 267 544 q 281 633 272 590 q 297 690 290 676 q 360 731 318 731 q 394 721 378 731 q 419 692 410 711 q 421 638 428 672 q 417 617 419 631 q 414 588 415 603 q 411 558 413 572 q 410 538 410 544 l 410 529 l 482 528 q 539 525 517 526 q 576 520 561 524 q 599 510 590 517 q 618 493 608 504 z "},"":{"ha":560,"x_min":28,"x_max":479,"o":"m 475 300 q 470 217 479 263 q 442 131 461 171 q 361 45 414 72 q 246 18 308 18 q 101 76 154 18 q 33 221 49 133 q 28 287 28 249 q 36 349 29 325 q 82 447 50 397 q 158 521 114 496 q 231 538 192 538 q 322 517 279 538 q 396 465 364 497 q 449 389 428 432 q 475 300 469 346 m 400 272 q 399 308 400 297 q 392 333 399 318 q 333 423 375 383 q 235 463 292 463 l 232 463 q 208 460 217 461 q 190 453 199 458 q 172 435 182 447 q 140 401 161 424 q 104 267 100 360 q 140 144 107 196 q 251 92 172 92 q 320 106 292 92 q 366 146 349 121 q 392 203 383 171 q 400 272 400 236 m 282 236 q 310 244 297 244 q 340 222 332 244 q 307 167 351 189 q 263 156 288 156 q 229 166 247 156 q 201 188 211 176 q 183 213 189 201 q 174 243 178 224 q 187 336 163 292 q 251 392 211 381 q 267 393 257 393 q 304 381 288 393 q 321 353 321 369 q 315 336 321 346 q 301 325 308 326 l 278 325 l 269 325 q 256 317 263 325 q 241 270 240 296 q 258 233 242 244 q 265 231 264 231 q 282 236 271 231 z "},"":{"ha":757,"x_min":22,"x_max":674,"o":"m 181 585 q 174 589 174 585 q 174 607 171 593 q 185 636 178 621 q 288 751 215 706 q 324 768 315 768 q 332 764 328 768 q 322 747 343 756 q 245 691 279 728 q 196 610 211 654 q 181 585 188 586 m 674 82 q 651 19 674 51 q 596 -32 628 -14 q 543 -49 574 -43 q 482 -56 513 -56 q 457 -54 465 -56 q 415 -47 436 -51 q 344 -26 393 -42 q 303 -14 324 -19 q 272 -6 282 -8 l 251 0 l 236 -8 q 175 -25 206 -25 q 113 -2 139 -25 q 88 60 86 21 q 111 115 88 89 q 168 147 135 140 q 178 152 176 149 q 186 172 181 156 q 195 224 190 190 q 203 290 200 258 l 204 310 l 190 315 q 153 322 169 322 q 129 318 138 322 q 92 308 106 308 q 49 329 69 308 q 32 392 22 357 q 79 444 43 428 q 150 460 115 460 q 164 459 154 460 q 183 458 174 458 q 201 456 193 457 q 211 456 210 456 q 217 460 214 454 q 224 489 219 467 q 247 574 231 531 q 290 652 264 617 q 354 710 317 688 q 439 732 392 732 q 515 710 479 732 q 568 653 551 689 q 576 599 582 625 q 549 558 571 574 q 533 550 539 551 q 513 549 528 549 q 491 550 497 549 q 476 557 485 551 q 458 575 464 567 q 444 593 449 593 q 441 592 443 593 q 436 589 439 590 q 411 566 422 582 q 392 531 400 550 q 380 493 385 513 q 372 460 375 474 q 368 439 369 449 q 365 426 367 429 q 372 419 364 419 q 388 424 381 419 q 413 443 396 428 q 472 469 440 469 q 517 451 499 469 q 540 375 553 419 q 517 333 535 353 q 475 301 499 314 q 425 279 451 288 q 376 268 399 271 l 353 267 l 349 232 q 342 183 346 208 q 333 135 339 158 q 352 128 335 133 q 394 115 369 124 q 454 100 431 104 q 494 96 478 96 q 519 100 513 96 q 535 119 525 104 q 561 147 546 136 q 578 155 572 154 q 601 156 585 156 q 653 136 633 156 q 674 82 674 117 z "},"":{"ha":650,"x_min":-15,"x_max":556,"o":"m 99 386 q 90 381 94 381 q 73 401 85 381 q 49 449 61 422 q 26 499 36 475 q 14 531 17 524 q -12 603 -8 586 q -4 619 -15 621 q 3 611 -1 618 q 14 585 7 604 q 41 517 26 550 q 76 440 56 483 q 95 401 90 413 q 99 386 100 389 m 479 450 q 397 311 439 353 l 379 294 l 394 297 q 417 299 401 297 q 450 300 433 300 q 467 301 461 301 q 479 301 474 301 q 506 293 492 301 q 538 260 529 281 q 544 219 547 240 q 527 181 542 199 q 488 157 513 164 q 463 153 481 154 q 425 149 444 151 q 388 144 397 146 q 381 140 379 143 q 396 138 383 138 q 412 138 403 138 q 433 139 421 139 l 486 140 l 503 132 q 541 81 535 114 q 524 21 547 47 q 512 8 519 14 q 497 0 504 3 q 463 -8 488 -6 q 406 -14 438 -11 l 389 -14 l 386 -35 q 363 -88 383 -67 q 310 -110 343 -110 q 260 -87 279 -110 q 236 -37 240 -65 l 235 -25 l 210 -28 q 185 -30 200 -29 q 157 -31 169 -31 q 130 -29 138 -31 q 111 -22 122 -28 q 85 1 94 -14 q 76 33 76 17 q 83 67 75 50 q 108 93 92 83 q 154 104 121 100 q 185 108 169 107 q 211 113 201 110 q 229 117 226 115 q 232 125 232 118 l 232 135 l 199 135 l 182 135 q 150 138 161 135 q 128 150 139 140 q 104 206 100 172 q 140 257 108 240 q 158 263 143 260 q 193 269 174 267 l 236 275 l 238 288 q 236 299 238 296 q 226 308 235 303 q 179 358 203 324 q 135 431 156 392 q 97 509 114 471 q 71 571 81 547 q 46 645 50 624 q 50 683 42 667 q 113 722 71 722 q 135 715 119 722 q 158 701 151 708 q 173 676 161 699 q 200 621 185 653 q 258 513 229 563 q 299 449 286 464 l 308 438 l 326 475 q 342 512 332 486 q 363 567 351 538 q 384 624 374 596 q 400 671 394 653 q 428 720 410 699 q 479 742 447 742 q 533 717 511 742 q 551 656 556 692 q 542 624 550 650 q 522 567 533 599 q 499 502 511 535 q 479 450 488 469 z "},"":{"ha":686,"x_min":26,"x_max":579,"o":"m 171 676 q 164 667 171 675 q 146 649 157 660 q 79 560 107 608 q 46 471 51 511 q 38 453 44 454 q 29 460 32 451 q 34 501 26 472 q 56 558 42 531 q 77 594 64 575 q 104 633 90 614 q 131 665 118 651 q 153 683 144 679 q 155 684 154 683 q 157 685 156 685 q 171 676 171 685 m 556 201 q 574 142 579 175 q 556 98 571 124 q 518 49 540 72 q 470 5 496 25 q 422 -24 444 -15 l 407 -29 l 410 -61 q 410 -122 413 -106 q 393 -154 407 -139 q 342 -176 375 -176 q 302 -166 317 -176 q 281 -140 288 -156 q 272 -104 274 -124 q 271 -65 271 -85 l 271 -25 l 254 -18 q 149 88 192 14 q 90 265 106 161 q 87 349 85 300 q 96 431 89 399 q 159 585 114 517 q 267 688 204 653 l 282 696 l 285 757 q 286 798 285 782 q 290 823 288 814 q 297 838 293 832 q 310 850 301 844 q 350 864 328 864 q 389 851 371 864 q 414 815 407 839 q 419 793 417 808 q 422 763 421 778 l 424 725 l 439 721 q 502 678 483 710 q 503 611 521 646 q 478 586 494 596 q 444 576 463 576 q 419 582 431 576 q 397 589 406 589 q 345 566 372 589 q 303 525 318 543 q 253 438 268 483 q 238 335 238 393 q 243 276 238 314 q 261 202 249 239 q 294 139 274 165 q 344 113 314 113 q 429 181 385 113 q 463 218 449 208 q 501 228 478 228 q 556 201 533 228 z "},"":{"ha":608,"x_min":32,"x_max":472,"o":"m 386 126 q 458 82 438 122 q 464 26 472 54 q 428 -17 456 -1 q 419 -20 424 -19 q 405 -22 414 -21 q 380 -24 396 -24 q 338 -25 364 -25 q 282 -28 313 -26 q 223 -33 251 -31 q 169 -38 194 -35 q 129 -44 144 -42 q 110 -47 113 -47 q 74 -36 90 -47 q 50 -8 57 -25 q 60 63 32 31 q 76 76 67 71 q 101 86 85 81 q 146 97 118 92 q 221 110 174 101 q 303 122 261 117 q 386 126 344 126 m 410 460 q 456 421 440 444 q 468 369 471 397 q 463 348 467 357 q 447 324 458 339 q 411 287 435 310 q 346 226 388 264 q 306 190 321 204 q 280 170 290 176 q 262 162 269 164 q 243 160 254 160 l 232 160 q 192 178 210 160 q 169 215 175 196 q 176 263 164 242 q 228 322 188 283 q 257 351 244 339 q 269 364 269 363 q 265 369 269 365 q 253 376 260 372 q 212 404 232 389 q 174 435 192 419 q 144 465 157 450 q 126 490 132 479 q 133 568 106 533 q 182 592 153 592 q 238 563 217 592 q 278 528 249 547 q 347 489 307 508 q 383 473 365 482 q 410 460 401 464 z "},"":{"ha":711,"x_min":54,"x_max":586,"o":"m 542 260 q 567 230 560 247 q 574 194 575 213 q 563 160 572 176 q 533 133 553 143 q 524 131 529 132 q 510 128 519 129 q 482 128 500 128 q 432 128 464 128 l 343 129 l 333 78 q 326 36 329 57 q 319 7 322 15 q 297 -47 315 -22 q 246 -71 278 -71 q 221 -65 233 -71 q 193 -47 206 -60 q 175 -18 181 -33 q 171 13 171 -1 q 176 60 171 28 q 181 89 179 75 q 185 108 183 103 l 188 119 l 168 118 q 118 114 135 114 q 95 117 103 114 q 78 129 88 121 q 56 173 58 147 q 71 219 54 199 q 103 242 83 235 q 176 257 122 249 l 218 264 l 226 303 q 233 331 231 318 q 236 346 236 343 q 222 349 236 349 q 206 349 215 349 q 186 346 197 349 q 167 344 179 344 q 119 364 138 344 q 99 408 100 383 q 117 453 97 432 q 129 463 122 458 q 142 471 136 468 q 187 483 153 476 q 250 492 221 489 l 275 493 l 297 557 q 365 700 336 672 q 411 719 388 719 q 440 713 424 719 q 475 660 474 696 q 474 639 476 646 q 465 617 472 632 q 448 569 458 601 q 431 511 438 538 l 429 503 l 481 501 q 527 499 517 500 q 546 493 538 499 q 586 428 586 472 q 561 371 586 394 q 528 356 547 360 q 456 353 508 353 l 393 353 l 385 317 q 381 303 382 310 q 379 292 381 297 q 376 281 378 286 q 394 278 376 279 q 435 278 411 278 q 505 274 483 278 q 542 260 526 271 z "},"":{"ha":576,"x_min":28,"x_max":500,"o":"m 208 219 q 144 249 165 235 q 111 283 122 263 q 104 323 104 299 q 113 363 104 347 q 138 398 124 382 q 194 449 153 414 q 277 517 246 492 q 327 555 308 542 q 357 572 346 568 q 378 576 368 576 q 427 558 408 576 q 446 511 446 540 q 414 454 446 481 q 385 429 406 447 q 346 392 365 411 l 299 347 l 329 331 q 412 277 390 299 q 433 225 433 256 q 411 172 433 193 q 360 151 389 151 q 336 156 349 151 q 320 164 331 158 q 299 176 310 169 q 253 201 271 192 q 208 219 236 210 m 489 35 q 477 -33 500 -4 q 418 -61 454 -61 q 396 -58 410 -61 q 347 -49 376 -53 q 287 -44 318 -46 q 226 -40 256 -42 q 175 -39 196 -39 q 144 -40 156 -39 q 119 -43 132 -40 q 101 -45 110 -44 q 82 -46 92 -46 q 28 19 28 -32 q 81 86 28 71 q 156 100 108 96 q 257 104 204 104 q 367 99 315 104 q 443 83 419 93 q 471 62 457 76 q 489 35 485 47 z "},"":{"ha":601,"x_min":43,"x_max":521,"o":"m 92 632 q 83 626 92 626 q 75 632 78 626 q 81 659 72 640 q 108 699 90 678 q 147 742 125 721 q 192 779 169 764 q 263 815 249 815 q 269 807 272 815 q 236 782 269 799 q 150 719 192 758 q 92 632 108 681 m 492 367 q 515 308 510 340 q 514 243 521 275 q 476 160 504 200 q 410 90 449 121 q 327 42 372 60 q 238 24 282 24 q 206 26 222 24 l 192 29 l 193 -49 q 194 -99 194 -81 q 193 -130 194 -118 q 189 -149 192 -142 q 181 -164 186 -157 q 126 -190 161 -190 q 110 -187 121 -190 q 72 -158 82 -179 q 56 -71 63 -137 q 47 21 50 -19 q 44 95 44 61 q 44 161 43 129 q 46 231 44 193 q 113 563 58 431 q 256 740 168 696 q 326 758 292 758 q 449 703 396 758 q 498 582 496 651 q 456 446 500 513 q 442 424 444 428 q 444 417 440 419 q 467 396 453 411 q 492 367 482 381 m 233 450 q 241 451 233 447 q 260 464 249 456 q 283 483 271 472 q 307 504 296 493 q 338 540 329 525 q 346 574 346 556 q 332 606 346 597 q 330 606 331 606 q 328 607 329 607 q 319 603 326 607 q 293 576 308 596 q 265 533 278 557 q 242 485 251 508 q 233 450 233 463 m 286 189 q 316 208 301 196 q 342 235 331 221 q 361 262 354 249 q 365 283 368 275 q 319 301 361 301 q 278 297 301 301 q 254 294 261 294 q 215 306 235 294 l 206 313 l 204 300 q 201 279 203 294 q 199 247 200 264 q 197 215 197 231 q 196 192 196 199 l 196 175 l 229 176 q 261 178 253 176 q 286 189 269 181 z "},"":{"ha":672,"x_min":24,"x_max":593,"o":"m 549 383 q 588 295 583 347 q 567 181 593 243 q 513 97 549 136 q 433 26 478 57 q 336 -22 388 -4 q 236 -39 285 -39 q 222 -38 229 -39 q 207 -36 214 -37 q 126 -8 163 -31 q 65 48 89 15 q 33 121 42 81 q 33 203 24 161 q 60 267 42 236 q 115 340 79 297 q 176 415 151 382 q 218 477 201 447 q 245 535 235 507 q 263 597 256 564 q 286 650 269 626 q 338 674 303 674 q 390 650 367 674 q 408 625 403 638 q 414 594 414 613 q 408 553 414 576 q 390 494 403 529 q 335 381 371 436 q 238 250 300 325 q 193 193 206 213 q 181 158 181 174 q 183 144 181 149 q 192 132 185 139 q 215 115 201 119 q 236 113 229 113 q 293 124 263 113 q 352 155 324 136 q 404 197 381 174 q 438 243 428 219 q 444 299 457 285 q 426 347 425 321 q 446 392 426 374 q 492 410 465 410 q 549 383 524 410 m 317 729 q 283 763 294 740 q 275 813 272 785 q 299 865 278 844 q 351 886 319 886 q 396 872 378 886 q 422 838 414 858 q 426 792 429 817 q 404 744 422 767 q 353 719 383 719 q 317 729 336 719 m 343 -67 q 357 -62 351 -62 q 367 -67 365 -62 q 358 -81 369 -74 q 326 -93 346 -87 q 281 -101 306 -99 q 231 -104 256 -104 q 209 -103 224 -104 q 180 -99 194 -101 q 154 -91 165 -96 q 143 -78 143 -86 q 151 -69 143 -69 q 169 -74 157 -69 q 240 -85 199 -85 q 294 -80 261 -85 q 343 -67 326 -75 z "},"":{"ha":339,"x_min":28,"x_max":242,"o":"m 176 -67 q 188 -61 182 -61 q 196 -69 194 -61 q 185 -85 196 -78 q 159 -97 174 -92 q 131 -106 144 -103 q 110 -108 117 -108 q 39 -81 67 -108 q 28 -65 28 -71 q 35 -58 28 -58 q 57 -69 46 -58 q 79 -83 68 -79 q 106 -87 90 -87 l 119 -87 q 176 -67 153 -85 m 196 639 q 215 609 211 624 q 219 546 219 594 q 219 444 221 503 q 215 323 218 385 q 206 201 211 261 q 196 96 201 142 q 181 15 189 36 q 156 -18 174 -6 q 140 -26 147 -25 q 121 -28 133 -28 l 111 -28 q 92 -25 100 -28 q 58 8 72 -17 q 54 17 56 14 q 53 27 53 21 q 53 45 53 33 q 56 78 54 57 q 59 147 57 103 q 63 248 61 192 q 65 367 64 304 q 68 490 67 429 q 69 554 68 531 q 70 590 69 578 q 72 608 71 603 q 76 617 74 613 q 106 649 88 638 q 144 660 125 660 q 196 639 174 660 m 238 843 q 241 823 240 831 q 239 804 242 815 q 197 738 231 756 q 167 727 188 733 q 140 721 147 721 q 131 722 136 721 q 121 725 125 724 q 79 762 93 736 q 71 821 65 788 q 100 882 78 854 q 160 910 122 910 q 208 892 186 910 q 238 843 229 875 z "},"":{"ha":678,"x_min":-56,"x_max":608,"o":"m 243 960 q 211 985 224 968 q 195 1022 199 1001 q 197 1061 192 1042 q 217 1096 201 1081 q 248 1115 228 1107 q 288 1122 268 1122 q 341 1099 319 1122 q 363 1042 363 1075 q 335 978 363 1004 q 275 953 308 953 q 243 960 260 953 m 488 949 q 432 994 447 961 q 426 1031 425 1007 q 433 1068 426 1054 q 471 1108 447 1094 q 521 1122 494 1122 q 558 1114 542 1122 q 597 1071 588 1099 q 601 1016 607 1043 q 573 969 594 989 q 518 946 551 949 q 503 946 511 946 q 488 949 494 946 m 54 43 q 68 28 67 35 q 58 19 69 21 l 56 19 q 36 29 47 19 q -20 106 4 57 q -53 206 -44 154 q -55 227 -56 222 q -51 236 -54 232 q -44 240 -47 240 q -36 219 -39 240 q -24 169 -33 196 q -3 117 -15 142 q 25 73 10 93 q 54 43 40 53 m 596 713 q 578 642 585 672 q 565 567 572 611 q 556 473 558 518 q 553 379 553 428 q 558 275 554 331 q 571 150 563 219 q 576 105 574 128 q 582 71 579 82 q 585 47 585 56 q 583 28 586 38 q 557 -15 576 1 q 513 -31 538 -31 q 490 -26 501 -31 q 432 53 444 -12 q 428 82 431 61 q 422 128 425 103 q 415 176 418 153 q 411 213 413 200 q 410 218 411 218 q 394 196 408 218 q 358 144 379 169 q 310 97 336 118 q 255 63 285 76 q 192 50 225 50 q 181 51 186 50 q 168 53 175 51 q 25 192 61 68 q 26 542 -11 317 q 42 621 31 571 q 72 723 54 671 q 110 818 89 775 q 156 874 132 861 q 192 883 171 883 q 226 874 210 883 q 250 846 242 864 q 244 782 264 817 q 210 685 226 747 q 181 553 193 624 q 162 415 168 483 q 160 299 156 347 q 172 228 163 254 q 192 203 181 203 q 253 256 215 203 q 326 393 290 310 q 354 465 338 419 q 388 561 371 511 q 421 659 406 611 q 444 738 436 707 q 469 806 458 786 q 501 836 481 826 q 532 843 514 843 q 576 829 556 843 q 603 792 596 815 q 608 762 608 774 q 596 713 607 750 z "},"":{"ha":608,"x_min":0,"x_max":558,"o":"m 451 1063 q 414 1085 429 1068 q 393 1123 399 1101 q 392 1167 388 1144 q 414 1206 397 1189 q 471 1231 439 1231 q 515 1215 494 1231 q 544 1171 535 1200 q 526 1088 558 1126 q 498 1068 515 1075 q 464 1061 481 1061 q 451 1063 456 1061 m 224 1058 q 164 1140 164 1078 q 191 1200 164 1181 q 254 1219 218 1219 q 276 1218 269 1219 q 290 1214 283 1217 q 328 1166 319 1199 q 322 1101 338 1133 q 290 1067 311 1079 q 247 1054 269 1054 q 224 1058 235 1054 m 117 28 q 139 40 132 40 q 146 33 143 40 q 136 15 149 28 q 76 -12 111 -10 l 67 -12 q 42 -6 54 -12 q 13 17 26 3 q 1 39 0 32 q 8 46 3 46 q 25 35 15 46 q 47 16 35 24 q 75 8 60 8 q 117 28 90 8 m 515 872 q 529 801 524 840 q 537 708 535 761 q 538 588 539 656 q 532 432 536 519 q 529 369 531 403 q 526 305 528 336 q 524 246 525 274 q 522 199 522 218 q 519 121 519 160 q 517 64 518 82 q 512 24 515 44 q 500 -12 508 4 q 477 -40 492 -29 q 438 -50 463 -50 q 403 -40 418 -50 q 378 -18 389 -33 q 365 13 368 -3 q 363 49 364 18 q 363 117 363 81 q 365 187 364 154 q 368 226 367 219 l 369 235 l 297 233 q 224 228 261 232 q 151 219 188 225 q 149 202 150 219 q 146 160 147 185 q 143 108 144 121 q 138 86 142 96 q 113 57 129 67 q 79 47 97 47 q 33 67 56 47 q 24 78 29 71 q 17 93 19 86 q 8 150 10 110 q 7 242 6 190 q 13 350 8 293 q 26 456 18 407 q 132 806 63 664 q 293 997 201 949 q 333 1014 315 1011 q 376 1017 351 1017 q 461 976 425 1014 q 515 872 497 939 m 376 440 q 379 510 378 472 q 382 582 381 547 q 383 646 383 617 q 383 690 383 675 q 379 745 382 718 q 373 794 376 772 q 365 828 369 815 q 358 842 361 842 q 340 826 356 842 q 313 799 324 811 q 254 693 283 761 q 204 543 225 625 q 192 494 199 522 q 182 442 186 467 q 175 401 178 418 q 174 385 172 385 q 182 386 175 385 q 200 390 189 388 q 272 402 232 397 q 340 407 313 407 l 374 407 l 376 440 z "},"":{"ha":503,"x_min":-1,"x_max":446,"o":"m 82 697 q 38 737 51 708 q 33 797 24 765 q 65 844 42 828 q 115 861 89 861 q 171 838 147 861 q 194 782 194 814 q 169 719 194 744 q 108 693 143 693 q 82 697 94 693 m 274 799 q 290 858 274 832 q 344 885 307 885 q 413 853 381 885 q 438 794 436 829 q 417 732 440 760 q 390 713 406 719 q 356 707 374 707 q 294 735 315 707 q 274 799 274 763 m 158 4 q 190 0 185 1 q 193 -8 194 -1 q 189 -15 192 -14 q 171 -17 186 -15 q 151 -15 163 -17 q 129 -11 139 -14 q 98 0 115 -8 q 65 19 81 8 q 37 43 50 31 q 18 68 24 56 q 19 82 14 76 q 24 85 22 85 q 44 65 26 85 q 158 4 92 13 m 438 151 q 446 73 446 96 q 439 36 446 50 q 374 -6 417 -6 q 323 15 342 -6 q 297 64 304 35 l 296 72 l 281 65 q 201 47 246 47 q 101 78 146 47 q 33 158 57 110 q 6 238 14 199 q 1 340 -1 278 q 49 553 6 499 q 100 575 67 575 q 149 556 131 575 q 164 521 161 542 q 160 482 167 500 q 146 372 146 454 q 161 242 146 288 q 204 197 176 197 q 235 223 219 197 q 264 293 250 249 q 272 326 271 313 q 275 371 274 340 q 281 444 276 406 q 290 517 285 482 q 300 578 294 551 q 311 615 306 606 q 371 650 329 650 q 390 649 383 650 q 404 642 396 647 q 433 561 442 618 q 427 469 429 524 q 425 358 425 415 q 428 247 425 301 q 438 151 432 192 z "},"":{"ha":538,"x_min":-10,"x_max":485,"o":"m 69 768 q 96 839 64 804 q 165 875 129 875 q 200 867 183 875 q 247 783 251 842 q 216 717 244 740 q 147 694 188 694 q 97 717 118 694 q 69 768 75 740 m 447 850 q 471 768 482 811 q 403 699 458 718 q 376 694 389 694 q 338 708 354 694 q 311 739 321 721 q 303 796 299 764 q 326 851 307 828 q 385 876 347 876 q 419 870 403 876 q 447 850 436 864 m 114 599 q 83 575 100 590 q 51 543 67 560 q 24 511 36 526 q 10 486 13 496 q 1 479 7 479 q -6 483 -4 479 q 6 518 -10 494 q 49 571 21 542 q 94 610 74 596 q 126 625 115 625 q 133 618 133 625 q 114 599 133 611 m 449 475 q 481 328 485 411 q 458 226 479 276 q 403 135 438 175 q 322 69 368 94 q 222 40 276 43 q 188 41 197 40 q 164 47 178 42 q 86 99 119 63 q 38 179 53 136 q 22 241 26 211 q 18 314 17 271 q 47 447 21 381 q 129 553 72 513 q 160 571 142 563 q 214 593 179 579 q 231 596 219 594 q 256 597 242 597 q 367 567 318 597 q 449 475 417 536 m 331 344 q 326 383 331 368 q 308 415 321 397 q 284 440 296 435 q 244 447 272 446 l 215 449 l 206 438 q 180 391 189 418 q 168 324 171 364 q 174 249 165 282 q 197 200 182 215 q 208 192 204 193 q 221 190 211 190 q 233 194 226 192 q 246 199 240 196 q 307 260 283 218 q 331 344 331 303 z "},"":{"ha":578,"x_min":0,"x_max":522,"o":"m 293 838 q 303 876 293 857 q 328 907 313 896 q 365 919 344 919 q 421 894 396 919 q 442 868 436 881 q 447 833 447 856 q 440 796 447 808 q 367 751 418 751 q 314 779 335 751 q 293 838 293 807 m 67 829 q 86 892 64 868 q 149 918 108 915 l 160 918 q 188 910 172 918 q 228 862 219 894 q 222 797 238 829 q 146 747 197 747 q 91 772 113 747 q 67 829 69 797 m 517 449 q 520 417 519 436 q 522 376 521 397 q 522 335 522 356 q 518 300 521 315 q 506 219 514 265 q 492 129 499 172 q 479 55 485 86 q 472 19 474 24 q 446 -17 465 -3 q 403 -31 426 -31 q 363 -19 381 -31 q 336 14 344 -8 l 331 25 l 308 17 q 231 4 271 4 q 144 20 186 4 q 71 64 103 36 q 19 131 39 92 q 0 217 0 169 q 24 319 0 271 q 88 403 49 367 q 178 461 128 440 q 281 482 228 482 q 336 475 306 482 q 347 474 342 474 q 343 492 356 474 q 296 528 325 515 q 233 542 267 542 q 161 526 199 542 q 118 515 136 515 q 68 540 88 515 q 58 599 49 568 q 103 649 67 629 q 175 674 135 665 q 253 683 215 683 q 431 619 365 683 q 517 449 497 556 m 365 303 l 349 318 q 293 340 324 340 q 247 331 271 340 q 203 304 224 321 q 168 267 182 288 q 151 224 154 246 q 156 196 150 211 q 232 157 176 157 q 281 169 260 157 q 321 200 301 181 q 351 235 344 222 q 363 274 358 247 l 365 303 m 206 -29 l 251 -29 l 251 -37 q 242 -47 251 -44 q 228 -49 236 -49 q 211 -49 221 -49 q 134 -40 168 -49 q 64 -3 100 -31 q 32 27 49 8 q 17 50 15 46 q 22 56 18 56 q 50 36 31 56 q 121 -15 85 0 q 206 -29 157 -29 z "},"":{"ha":722,"x_min":-28,"x_max":654,"o":"m 375 1121 q 465 1224 378 1221 q 531 1195 507 1224 q 553 1121 556 1167 q 523 1051 550 1079 q 461 1024 496 1024 q 397 1053 419 1024 q 375 1121 375 1083 m 125 1049 q 104 1094 108 1069 q 106 1143 100 1119 q 129 1184 113 1167 q 171 1207 146 1201 q 183 1209 178 1208 q 194 1210 189 1210 q 221 1206 204 1210 q 256 1182 239 1199 q 278 1146 272 1165 q 267 1061 293 1099 q 194 1021 242 1024 q 157 1027 174 1021 q 125 1049 140 1033 m 93 97 q 101 74 114 81 q 97 72 100 72 q 83 79 94 72 q 23 146 51 101 q -21 236 -6 190 q -27 263 -26 256 q -22 274 -28 271 q -12 270 -14 274 q -7 257 -10 267 q 31 171 0 217 q 93 97 63 125 m 622 682 q 652 519 650 599 q 631 349 654 439 q 588 233 617 289 q 517 135 558 178 q 422 66 475 92 q 303 40 368 40 q 192 68 242 40 q 104 140 142 96 q 42 238 67 183 q 8 346 18 292 q 4 389 6 363 q 3 443 3 415 q 4 497 3 471 q 8 540 6 524 q 106 789 35 689 q 208 892 149 849 q 344 935 268 935 q 443 913 399 935 q 522 856 488 892 q 582 776 557 821 q 622 682 607 731 m 478 360 q 495 433 490 399 q 499 515 500 468 q 476 642 496 579 q 413 753 457 704 q 379 777 394 772 q 339 782 364 782 q 305 772 319 782 q 263 733 290 763 q 231 697 243 713 q 208 667 218 682 q 192 637 199 653 q 178 599 185 621 q 153 466 156 532 q 164 344 150 400 q 207 249 178 289 q 279 196 236 210 q 307 192 292 192 q 360 203 340 192 q 428 264 396 221 q 478 360 460 307 z "},"#":{"ha":822,"x_min":69,"x_max":725,"o":"m 672 307 q 712 276 699 297 q 725 234 725 256 q 711 193 725 213 q 671 165 697 174 q 650 161 658 161 q 630 163 642 161 q 596 169 618 165 l 586 171 l 586 149 q 566 92 586 114 q 515 71 546 71 q 457 99 475 71 q 435 161 439 126 l 433 179 l 378 179 l 379 157 q 361 94 383 118 q 307 68 339 68 q 252 95 271 68 q 229 154 233 122 l 228 174 l 214 174 q 197 172 208 174 q 172 168 185 171 q 157 166 164 167 q 143 165 150 165 q 92 186 113 165 q 76 222 79 200 q 82 260 74 243 q 114 290 92 279 q 189 310 136 300 l 221 314 l 222 328 q 215 342 224 342 q 200 340 210 342 q 175 336 190 339 q 153 333 163 333 q 136 333 143 333 q 99 342 114 333 q 76 369 83 353 q 70 401 69 385 q 81 433 71 418 q 107 457 90 449 q 124 463 111 458 q 155 471 138 467 q 190 478 172 475 q 219 483 207 482 l 233 485 l 236 503 q 249 565 240 547 q 279 594 258 583 q 310 603 294 603 q 336 596 319 603 q 374 515 378 575 l 371 494 l 433 494 l 438 521 q 447 559 442 539 q 460 596 451 579 q 484 623 469 613 q 521 633 499 633 q 574 606 553 633 q 582 540 594 578 q 575 508 578 529 q 575 489 572 492 q 596 483 578 486 q 636 464 619 478 q 659 432 653 450 q 662 394 665 414 q 643 360 658 375 q 585 335 618 335 q 574 329 574 335 q 576 322 574 322 q 597 320 583 322 q 625 316 610 318 q 653 311 640 314 q 672 307 667 308 m 424 329 l 424 336 q 420 344 424 343 q 397 344 417 344 q 375 344 379 344 q 371 339 371 343 q 375 333 371 335 q 397 331 379 332 l 415 331 q 424 329 419 329 z "},"!":{"ha":424,"x_min":85,"x_max":299,"o":"m 222 128 q 251 88 244 114 q 253 35 258 63 q 232 -14 249 8 q 189 -44 215 -36 q 165 -49 175 -49 q 116 -29 136 -49 q 89 18 96 -10 q 85 39 85 32 q 88 57 85 46 q 110 108 94 92 q 161 136 126 125 q 186 139 178 139 q 222 128 206 139 m 244 881 q 265 856 258 872 l 275 840 l 271 783 q 267 714 269 758 q 264 614 265 669 q 261 495 263 558 q 258 371 260 432 q 258 308 258 331 q 256 272 257 285 q 254 254 256 260 q 250 244 253 249 q 213 208 235 218 q 172 201 197 201 q 114 244 132 213 q 108 265 110 253 q 106 317 107 276 q 107 418 106 360 q 112 538 108 476 q 120 660 115 600 q 131 765 125 719 q 138 815 135 796 q 146 847 142 835 q 156 867 150 860 q 171 881 163 875 q 187 888 181 888 q 208 889 193 889 q 230 888 224 889 q 244 881 236 888 m 288 943 q 299 926 299 932 q 292 919 299 919 q 269 931 281 919 q 240 947 254 944 q 207 950 226 950 q 150 928 172 947 q 139 922 144 922 q 131 931 133 922 q 141 947 131 939 q 165 960 151 954 q 194 968 179 965 q 215 971 208 971 q 288 943 257 971 z "},"\"":{"ha":431,"x_min":-15,"x_max":361,"o":"m 69 1076 q 100 1066 83 1075 q 128 1044 117 1057 q 151 998 143 1029 q 153 942 158 967 q 129 886 146 914 q 93 847 113 858 q 74 838 82 838 q 64 842 68 838 q 63 885 33 857 l 75 896 l 60 897 q 10 926 31 901 q -12 974 -8 947 q -7 1023 -15 1000 q 19 1061 1 1046 q 63 1076 38 1076 l 69 1076 m 353 1028 q 360 987 360 1015 q 357 939 361 958 q 338 892 350 915 q 310 853 325 868 q 294 838 299 840 q 281 835 289 835 q 261 840 267 835 q 268 879 244 857 q 285 897 282 893 q 283 900 289 900 l 278 900 q 222 918 246 900 q 193 984 194 943 q 219 1053 192 1025 q 248 1070 231 1064 q 283 1076 265 1076 q 313 1071 301 1076 q 335 1053 324 1067 q 353 1028 347 1040 z "}}}
